<mxfile host="app.diagrams.net" modified="2021-03-01T14:45:02.859Z" agent="5.0 (Windows NT 10.0; Win64; x64) AppleWebKit/537.36 (KHTML, like Gecko) Chrome/88.0.4324.182 Safari/537.36 Edg/88.0.705.81" etag="3mfMogBZOyZ75QpkexwT" version="14.4.3" type="github">
  <diagram id="Vwi1EXBxK2TPIhp4Lb0i" name="Page-1">
    <mxGraphModel dx="882" dy="794" grid="1" gridSize="10" guides="1" tooltips="1" connect="1" arrows="1" fold="1" page="1" pageScale="1" pageWidth="1654" pageHeight="1169" math="0" shadow="0">
      <root>
        <mxCell id="0" />
        <mxCell id="1" parent="0" />
        <mxCell id="4f49OWtmn93uGcDpgc6W-15" value="" style="endArrow=none;html=1;" parent="1" edge="1">
          <mxGeometry width="50" height="50" relative="1" as="geometry">
            <mxPoint x="1340" y="210" as="sourcePoint" />
            <mxPoint x="1400" y="210" as="targetPoint" />
          </mxGeometry>
        </mxCell>
        <mxCell id="4f49OWtmn93uGcDpgc6W-16" value="" style="endArrow=none;html=1;" parent="1" edge="1">
          <mxGeometry width="50" height="50" relative="1" as="geometry">
            <mxPoint x="1325" y="220" as="sourcePoint" />
            <mxPoint x="1385" y="220" as="targetPoint" />
          </mxGeometry>
        </mxCell>
        <mxCell id="4f49OWtmn93uGcDpgc6W-14" value="" style="endArrow=none;html=1;exitX=1;exitY=0.25;exitDx=0;exitDy=0;jumpStyle=arc;rounded=0;" parent="1" source="MmGtoHiQ9Y3kxAFWbWzb-9" edge="1">
          <mxGeometry width="50" height="50" relative="1" as="geometry">
            <mxPoint x="840" y="320" as="sourcePoint" />
            <mxPoint x="1341.3326710668102" y="210" as="targetPoint" />
            <Array as="points">
              <mxPoint x="860" y="450" />
              <mxPoint x="860" y="210" />
            </Array>
          </mxGeometry>
        </mxCell>
        <mxCell id="4f49OWtmn93uGcDpgc6W-13" value="" style="endArrow=none;html=1;exitX=0.25;exitY=0;exitDx=0;exitDy=0;rounded=0;" parent="1" source="MmGtoHiQ9Y3kxAFWbWzb-10" edge="1">
          <mxGeometry width="50" height="50" relative="1" as="geometry">
            <mxPoint x="975" y="440" as="sourcePoint" />
            <mxPoint x="1325" y="220" as="targetPoint" />
            <Array as="points">
              <mxPoint x="980" y="220" />
            </Array>
          </mxGeometry>
        </mxCell>
        <mxCell id="MmGtoHiQ9Y3kxAFWbWzb-74" style="edgeStyle=orthogonalEdgeStyle;rounded=0;orthogonalLoop=1;jettySize=auto;html=1;exitX=0.5;exitY=1;exitDx=0;exitDy=0;entryX=0.5;entryY=1;entryDx=0;entryDy=0;" parent="1" source="MmGtoHiQ9Y3kxAFWbWzb-53" target="MmGtoHiQ9Y3kxAFWbWzb-9" edge="1">
          <mxGeometry relative="1" as="geometry">
            <Array as="points">
              <mxPoint x="1460" y="680" />
              <mxPoint x="800" y="680" />
            </Array>
          </mxGeometry>
        </mxCell>
        <mxCell id="4f49OWtmn93uGcDpgc6W-23" value="LO" style="edgeLabel;html=1;align=center;verticalAlign=middle;resizable=0;points=[];" parent="MmGtoHiQ9Y3kxAFWbWzb-74" vertex="1" connectable="0">
          <mxGeometry x="-0.9669" y="-1" relative="1" as="geometry">
            <mxPoint as="offset" />
          </mxGeometry>
        </mxCell>
        <mxCell id="MmGtoHiQ9Y3kxAFWbWzb-75" style="edgeStyle=orthogonalEdgeStyle;rounded=0;orthogonalLoop=1;jettySize=auto;html=1;exitX=0.25;exitY=1;exitDx=0;exitDy=0;entryX=0.75;entryY=1;entryDx=0;entryDy=0;" parent="1" source="MmGtoHiQ9Y3kxAFWbWzb-53" target="MmGtoHiQ9Y3kxAFWbWzb-9" edge="1">
          <mxGeometry relative="1" as="geometry">
            <Array as="points">
              <mxPoint x="1445" y="670" />
              <mxPoint x="820" y="670" />
            </Array>
          </mxGeometry>
        </mxCell>
        <mxCell id="4f49OWtmn93uGcDpgc6W-20" value="HI" style="edgeLabel;html=1;align=center;verticalAlign=middle;resizable=0;points=[];" parent="MmGtoHiQ9Y3kxAFWbWzb-75" vertex="1" connectable="0">
          <mxGeometry x="-0.9623" relative="1" as="geometry">
            <mxPoint as="offset" />
          </mxGeometry>
        </mxCell>
        <mxCell id="MmGtoHiQ9Y3kxAFWbWzb-37" style="edgeStyle=orthogonalEdgeStyle;rounded=0;orthogonalLoop=1;jettySize=auto;html=1;entryX=0.75;entryY=1;entryDx=0;entryDy=0;" parent="1" source="4f49OWtmn93uGcDpgc6W-8" target="MmGtoHiQ9Y3kxAFWbWzb-2" edge="1">
          <mxGeometry relative="1" as="geometry">
            <Array as="points">
              <mxPoint x="520" y="660" />
              <mxPoint x="340" y="660" />
            </Array>
            <mxPoint x="500" y="650" as="sourcePoint" />
          </mxGeometry>
        </mxCell>
        <mxCell id="MmGtoHiQ9Y3kxAFWbWzb-41" style="edgeStyle=orthogonalEdgeStyle;rounded=0;orthogonalLoop=1;jettySize=auto;html=1;entryX=1;entryY=0.75;entryDx=0;entryDy=0;jumpStyle=arc;" parent="1" source="4f49OWtmn93uGcDpgc6W-8" target="MmGtoHiQ9Y3kxAFWbWzb-12" edge="1">
          <mxGeometry relative="1" as="geometry">
            <Array as="points">
              <mxPoint x="600" y="690" />
              <mxPoint x="1270" y="690" />
              <mxPoint x="1270" y="470" />
            </Array>
            <mxPoint x="620" y="670" as="sourcePoint" />
          </mxGeometry>
        </mxCell>
        <mxCell id="MmGtoHiQ9Y3kxAFWbWzb-76" style="edgeStyle=orthogonalEdgeStyle;rounded=0;orthogonalLoop=1;jettySize=auto;html=1;jumpStyle=arc;" parent="1" target="MmGtoHiQ9Y3kxAFWbWzb-53" edge="1">
          <mxGeometry relative="1" as="geometry">
            <Array as="points">
              <mxPoint x="1460" y="210" />
            </Array>
            <mxPoint x="1400" y="210" as="sourcePoint" />
          </mxGeometry>
        </mxCell>
        <mxCell id="MmGtoHiQ9Y3kxAFWbWzb-77" style="edgeStyle=orthogonalEdgeStyle;rounded=0;orthogonalLoop=1;jettySize=auto;html=1;entryX=0.25;entryY=0;entryDx=0;entryDy=0;endFill=1;snapToPoint=0;" parent="1" target="MmGtoHiQ9Y3kxAFWbWzb-53" edge="1">
          <mxGeometry relative="1" as="geometry">
            <Array as="points">
              <mxPoint x="1445" y="220" />
            </Array>
            <mxPoint x="1385" y="220" as="sourcePoint" />
          </mxGeometry>
        </mxCell>
        <mxCell id="MmGtoHiQ9Y3kxAFWbWzb-1" value="PipelineController" style="rounded=0;whiteSpace=wrap;html=1;direction=south;" parent="1" vertex="1">
          <mxGeometry x="280" y="720" width="1210" height="40" as="geometry" />
        </mxCell>
        <mxCell id="MmGtoHiQ9Y3kxAFWbWzb-15" style="edgeStyle=orthogonalEdgeStyle;rounded=0;orthogonalLoop=1;jettySize=auto;html=1;exitX=1;exitY=0.5;exitDx=0;exitDy=0;" parent="1" source="MmGtoHiQ9Y3kxAFWbWzb-2" target="MmGtoHiQ9Y3kxAFWbWzb-3" edge="1">
          <mxGeometry relative="1" as="geometry" />
        </mxCell>
        <mxCell id="MmGtoHiQ9Y3kxAFWbWzb-38" style="edgeStyle=orthogonalEdgeStyle;rounded=0;orthogonalLoop=1;jettySize=auto;html=1;entryX=0.25;entryY=1;entryDx=0;entryDy=0;" parent="1" target="MmGtoHiQ9Y3kxAFWbWzb-2" edge="1">
          <mxGeometry relative="1" as="geometry">
            <mxPoint x="300" y="720" as="sourcePoint" />
          </mxGeometry>
        </mxCell>
        <mxCell id="MmGtoHiQ9Y3kxAFWbWzb-2" value="PC" style="rounded=0;whiteSpace=wrap;html=1;" parent="1" vertex="1">
          <mxGeometry x="280" y="440" width="80" height="40" as="geometry" />
        </mxCell>
        <mxCell id="MmGtoHiQ9Y3kxAFWbWzb-16" style="edgeStyle=orthogonalEdgeStyle;rounded=0;orthogonalLoop=1;jettySize=auto;html=1;exitX=1;exitY=0.5;exitDx=0;exitDy=0;entryX=0;entryY=0.5;entryDx=0;entryDy=0;" parent="1" source="MmGtoHiQ9Y3kxAFWbWzb-3" edge="1">
          <mxGeometry relative="1" as="geometry">
            <mxPoint x="480" y="460" as="targetPoint" />
          </mxGeometry>
        </mxCell>
        <mxCell id="MmGtoHiQ9Y3kxAFWbWzb-28" style="edgeStyle=orthogonalEdgeStyle;rounded=0;orthogonalLoop=1;jettySize=auto;html=1;entryX=0.5;entryY=1;entryDx=0;entryDy=0;jumpStyle=arc;" parent="1" target="MmGtoHiQ9Y3kxAFWbWzb-3" edge="1">
          <mxGeometry relative="1" as="geometry">
            <mxPoint x="420" y="720" as="sourcePoint" />
          </mxGeometry>
        </mxCell>
        <mxCell id="MmGtoHiQ9Y3kxAFWbWzb-3" value="IF&lt;br&gt;|&lt;br&gt;ID" style="rounded=0;whiteSpace=wrap;html=1;" parent="1" vertex="1">
          <mxGeometry x="400" y="280" width="40" height="360" as="geometry" />
        </mxCell>
        <mxCell id="MmGtoHiQ9Y3kxAFWbWzb-19" style="edgeStyle=orthogonalEdgeStyle;rounded=0;orthogonalLoop=1;jettySize=auto;html=1;exitX=1;exitY=0.25;exitDx=0;exitDy=0;entryX=0;entryY=0.5;entryDx=0;entryDy=0;" parent="1" source="MmGtoHiQ9Y3kxAFWbWzb-4" target="MmGtoHiQ9Y3kxAFWbWzb-8" edge="1">
          <mxGeometry relative="1" as="geometry" />
        </mxCell>
        <mxCell id="MmGtoHiQ9Y3kxAFWbWzb-20" style="edgeStyle=orthogonalEdgeStyle;rounded=0;orthogonalLoop=1;jettySize=auto;html=1;exitX=1;exitY=0.5;exitDx=0;exitDy=0;entryX=-0.03;entryY=0.482;entryDx=0;entryDy=0;entryPerimeter=0;" parent="1" source="MmGtoHiQ9Y3kxAFWbWzb-4" target="MmGtoHiQ9Y3kxAFWbWzb-9" edge="1">
          <mxGeometry relative="1" as="geometry" />
        </mxCell>
        <mxCell id="MmGtoHiQ9Y3kxAFWbWzb-29" style="edgeStyle=orthogonalEdgeStyle;rounded=0;orthogonalLoop=1;jettySize=auto;html=1;entryX=0.5;entryY=1;entryDx=0;entryDy=0;jumpStyle=arc;" parent="1" target="MmGtoHiQ9Y3kxAFWbWzb-4" edge="1">
          <mxGeometry relative="1" as="geometry">
            <mxPoint x="700" y="720" as="sourcePoint" />
          </mxGeometry>
        </mxCell>
        <mxCell id="MmGtoHiQ9Y3kxAFWbWzb-39" style="edgeStyle=orthogonalEdgeStyle;rounded=0;orthogonalLoop=1;jettySize=auto;html=1;exitX=0.25;exitY=0;exitDx=0;exitDy=0;entryX=0.75;entryY=0;entryDx=0;entryDy=0;" parent="1" source="MmGtoHiQ9Y3kxAFWbWzb-4" target="4f49OWtmn93uGcDpgc6W-8" edge="1">
          <mxGeometry relative="1" as="geometry">
            <Array as="points">
              <mxPoint x="690" y="240" />
              <mxPoint x="600" y="240" />
            </Array>
            <mxPoint x="620" y="240" as="targetPoint" />
          </mxGeometry>
        </mxCell>
        <mxCell id="MmGtoHiQ9Y3kxAFWbWzb-4" value="ID&lt;br&gt;|&lt;br&gt;EX" style="rounded=0;whiteSpace=wrap;html=1;" parent="1" vertex="1">
          <mxGeometry x="680" y="280" width="40" height="360" as="geometry" />
        </mxCell>
        <mxCell id="MmGtoHiQ9Y3kxAFWbWzb-23" style="edgeStyle=orthogonalEdgeStyle;rounded=0;orthogonalLoop=1;jettySize=auto;html=1;exitX=1;exitY=0.5;exitDx=0;exitDy=0;entryX=0;entryY=0.5;entryDx=0;entryDy=0;" parent="1" source="MmGtoHiQ9Y3kxAFWbWzb-5" target="MmGtoHiQ9Y3kxAFWbWzb-10" edge="1">
          <mxGeometry relative="1" as="geometry" />
        </mxCell>
        <mxCell id="MmGtoHiQ9Y3kxAFWbWzb-30" style="edgeStyle=orthogonalEdgeStyle;rounded=0;orthogonalLoop=1;jettySize=auto;html=1;entryX=0.5;entryY=1;entryDx=0;entryDy=0;jumpStyle=arc;" parent="1" target="MmGtoHiQ9Y3kxAFWbWzb-5" edge="1">
          <mxGeometry relative="1" as="geometry">
            <mxPoint x="900" y="720" as="sourcePoint" />
          </mxGeometry>
        </mxCell>
        <mxCell id="MmGtoHiQ9Y3kxAFWbWzb-5" value="EX&lt;br&gt;|&lt;br&gt;MEM" style="rounded=0;whiteSpace=wrap;html=1;" parent="1" vertex="1">
          <mxGeometry x="880" y="280" width="40" height="360" as="geometry" />
        </mxCell>
        <mxCell id="MmGtoHiQ9Y3kxAFWbWzb-25" style="edgeStyle=orthogonalEdgeStyle;rounded=0;orthogonalLoop=1;jettySize=auto;html=1;exitX=1;exitY=0.5;exitDx=0;exitDy=0;entryX=0;entryY=0.5;entryDx=0;entryDy=0;" parent="1" source="MmGtoHiQ9Y3kxAFWbWzb-6" target="MmGtoHiQ9Y3kxAFWbWzb-12" edge="1">
          <mxGeometry relative="1" as="geometry" />
        </mxCell>
        <mxCell id="MmGtoHiQ9Y3kxAFWbWzb-26" style="edgeStyle=orthogonalEdgeStyle;rounded=0;orthogonalLoop=1;jettySize=auto;html=1;exitX=1;exitY=0.25;exitDx=0;exitDy=0;entryX=0;entryY=0.5;entryDx=0;entryDy=0;" parent="1" source="MmGtoHiQ9Y3kxAFWbWzb-6" target="MmGtoHiQ9Y3kxAFWbWzb-11" edge="1">
          <mxGeometry relative="1" as="geometry" />
        </mxCell>
        <mxCell id="MmGtoHiQ9Y3kxAFWbWzb-27" style="edgeStyle=orthogonalEdgeStyle;rounded=0;orthogonalLoop=1;jettySize=auto;html=1;exitX=1;exitY=0.75;exitDx=0;exitDy=0;entryX=0;entryY=0.5;entryDx=0;entryDy=0;" parent="1" source="MmGtoHiQ9Y3kxAFWbWzb-6" target="MmGtoHiQ9Y3kxAFWbWzb-13" edge="1">
          <mxGeometry relative="1" as="geometry" />
        </mxCell>
        <mxCell id="MmGtoHiQ9Y3kxAFWbWzb-40" style="edgeStyle=orthogonalEdgeStyle;rounded=0;orthogonalLoop=1;jettySize=auto;html=1;entryX=0.5;entryY=1;entryDx=0;entryDy=0;jumpStyle=arc;" parent="1" target="MmGtoHiQ9Y3kxAFWbWzb-6" edge="1">
          <mxGeometry relative="1" as="geometry">
            <mxPoint x="1100" y="720" as="sourcePoint" />
          </mxGeometry>
        </mxCell>
        <mxCell id="MmGtoHiQ9Y3kxAFWbWzb-6" value="MEM&lt;br&gt;|&lt;br&gt;WB" style="rounded=0;whiteSpace=wrap;html=1;" parent="1" vertex="1">
          <mxGeometry x="1080" y="280" width="40" height="360" as="geometry" />
        </mxCell>
        <mxCell id="MmGtoHiQ9Y3kxAFWbWzb-17" style="edgeStyle=orthogonalEdgeStyle;rounded=0;orthogonalLoop=1;jettySize=auto;html=1;exitX=1;exitY=0.5;exitDx=0;exitDy=0;entryX=0;entryY=0.5;entryDx=0;entryDy=0;" parent="1" target="MmGtoHiQ9Y3kxAFWbWzb-4" edge="1">
          <mxGeometry relative="1" as="geometry">
            <mxPoint x="640" y="460" as="sourcePoint" />
          </mxGeometry>
        </mxCell>
        <mxCell id="MmGtoHiQ9Y3kxAFWbWzb-36" style="edgeStyle=orthogonalEdgeStyle;rounded=0;orthogonalLoop=1;jettySize=auto;html=1;exitX=0.5;exitY=1;exitDx=0;exitDy=0;" parent="1" source="4f49OWtmn93uGcDpgc6W-8" edge="1">
          <mxGeometry relative="1" as="geometry">
            <mxPoint x="600" y="660" as="sourcePoint" />
            <mxPoint x="560" y="720" as="targetPoint" />
            <Array as="points">
              <mxPoint x="560" y="720" />
            </Array>
          </mxGeometry>
        </mxCell>
        <mxCell id="MmGtoHiQ9Y3kxAFWbWzb-21" style="edgeStyle=orthogonalEdgeStyle;rounded=0;orthogonalLoop=1;jettySize=auto;html=1;exitX=0.5;exitY=1;exitDx=0;exitDy=0;entryX=0.5;entryY=0;entryDx=0;entryDy=0;" parent="1" source="MmGtoHiQ9Y3kxAFWbWzb-8" target="MmGtoHiQ9Y3kxAFWbWzb-9" edge="1">
          <mxGeometry relative="1" as="geometry" />
        </mxCell>
        <mxCell id="MmGtoHiQ9Y3kxAFWbWzb-8" value="MULT&lt;br&gt;DIV" style="rounded=0;whiteSpace=wrap;html=1;" parent="1" vertex="1">
          <mxGeometry x="760" y="350" width="80" height="40" as="geometry" />
        </mxCell>
        <mxCell id="MmGtoHiQ9Y3kxAFWbWzb-22" style="edgeStyle=orthogonalEdgeStyle;rounded=0;orthogonalLoop=1;jettySize=auto;html=1;exitX=1;exitY=0.5;exitDx=0;exitDy=0;entryX=0;entryY=0.5;entryDx=0;entryDy=0;" parent="1" source="MmGtoHiQ9Y3kxAFWbWzb-9" target="MmGtoHiQ9Y3kxAFWbWzb-5" edge="1">
          <mxGeometry relative="1" as="geometry" />
        </mxCell>
        <mxCell id="MmGtoHiQ9Y3kxAFWbWzb-34" style="edgeStyle=orthogonalEdgeStyle;rounded=0;orthogonalLoop=1;jettySize=auto;html=1;exitX=0.25;exitY=1;exitDx=0;exitDy=0;jumpStyle=arc;" parent="1" source="MmGtoHiQ9Y3kxAFWbWzb-9" edge="1">
          <mxGeometry relative="1" as="geometry">
            <mxPoint x="780" y="720" as="targetPoint" />
          </mxGeometry>
        </mxCell>
        <mxCell id="MmGtoHiQ9Y3kxAFWbWzb-9" value="ALU" style="rounded=0;whiteSpace=wrap;html=1;" parent="1" vertex="1">
          <mxGeometry x="760" y="440" width="80" height="40" as="geometry" />
        </mxCell>
        <mxCell id="MmGtoHiQ9Y3kxAFWbWzb-24" style="edgeStyle=orthogonalEdgeStyle;rounded=0;orthogonalLoop=1;jettySize=auto;html=1;exitX=1;exitY=0.5;exitDx=0;exitDy=0;entryX=0;entryY=0.5;entryDx=0;entryDy=0;" parent="1" source="MmGtoHiQ9Y3kxAFWbWzb-10" target="MmGtoHiQ9Y3kxAFWbWzb-6" edge="1">
          <mxGeometry relative="1" as="geometry" />
        </mxCell>
        <mxCell id="MmGtoHiQ9Y3kxAFWbWzb-71" style="edgeStyle=orthogonalEdgeStyle;rounded=0;orthogonalLoop=1;jettySize=auto;html=1;exitX=0.5;exitY=1;exitDx=0;exitDy=0;jumpStyle=arc;" parent="1" source="MmGtoHiQ9Y3kxAFWbWzb-10" edge="1">
          <mxGeometry relative="1" as="geometry">
            <mxPoint x="1000" y="720" as="targetPoint" />
          </mxGeometry>
        </mxCell>
        <mxCell id="MmGtoHiQ9Y3kxAFWbWzb-10" value="MEM" style="rounded=0;whiteSpace=wrap;html=1;" parent="1" vertex="1">
          <mxGeometry x="960" y="440" width="80" height="40" as="geometry" />
        </mxCell>
        <mxCell id="MmGtoHiQ9Y3kxAFWbWzb-55" style="edgeStyle=orthogonalEdgeStyle;rounded=0;orthogonalLoop=1;jettySize=auto;html=1;exitX=1;exitY=0.5;exitDx=0;exitDy=0;entryX=0;entryY=0.5;entryDx=0;entryDy=0;" parent="1" source="MmGtoHiQ9Y3kxAFWbWzb-11" target="MmGtoHiQ9Y3kxAFWbWzb-48" edge="1">
          <mxGeometry relative="1" as="geometry" />
        </mxCell>
        <mxCell id="MmGtoHiQ9Y3kxAFWbWzb-11" value="RegFIle" style="rounded=0;whiteSpace=wrap;html=1;" parent="1" vertex="1">
          <mxGeometry x="1160" y="350" width="80" height="40" as="geometry" />
        </mxCell>
        <mxCell id="MmGtoHiQ9Y3kxAFWbWzb-54" style="edgeStyle=orthogonalEdgeStyle;rounded=0;orthogonalLoop=1;jettySize=auto;html=1;exitX=1;exitY=0.5;exitDx=0;exitDy=0;entryX=0;entryY=0.5;entryDx=0;entryDy=0;" parent="1" source="MmGtoHiQ9Y3kxAFWbWzb-12" target="MmGtoHiQ9Y3kxAFWbWzb-52" edge="1">
          <mxGeometry relative="1" as="geometry" />
        </mxCell>
        <mxCell id="MmGtoHiQ9Y3kxAFWbWzb-12" value="CP0" style="rounded=0;whiteSpace=wrap;html=1;" parent="1" vertex="1">
          <mxGeometry x="1160" y="440" width="80" height="40" as="geometry" />
        </mxCell>
        <mxCell id="MmGtoHiQ9Y3kxAFWbWzb-56" style="edgeStyle=orthogonalEdgeStyle;rounded=0;orthogonalLoop=1;jettySize=auto;html=1;exitX=1;exitY=0.5;exitDx=0;exitDy=0;entryX=0;entryY=0.5;entryDx=0;entryDy=0;" parent="1" source="MmGtoHiQ9Y3kxAFWbWzb-13" target="MmGtoHiQ9Y3kxAFWbWzb-53" edge="1">
          <mxGeometry relative="1" as="geometry" />
        </mxCell>
        <mxCell id="MmGtoHiQ9Y3kxAFWbWzb-13" value="HILO" style="rounded=0;whiteSpace=wrap;html=1;" parent="1" vertex="1">
          <mxGeometry x="1160" y="530" width="80" height="40" as="geometry" />
        </mxCell>
        <mxCell id="MmGtoHiQ9Y3kxAFWbWzb-78" style="edgeStyle=orthogonalEdgeStyle;rounded=0;orthogonalLoop=1;jettySize=auto;html=1;exitX=0.25;exitY=0;exitDx=0;exitDy=0;entryX=0.25;entryY=0;entryDx=0;entryDy=0;" parent="1" target="MmGtoHiQ9Y3kxAFWbWzb-48" edge="1">
          <mxGeometry relative="1" as="geometry">
            <mxPoint x="1325" y="220" as="sourcePoint" />
          </mxGeometry>
        </mxCell>
        <mxCell id="MmGtoHiQ9Y3kxAFWbWzb-48" value="RegRead&lt;br&gt;Proxy" style="rounded=0;whiteSpace=wrap;html=1;" parent="1" vertex="1">
          <mxGeometry x="1310" y="330" width="60" height="80" as="geometry" />
        </mxCell>
        <mxCell id="MmGtoHiQ9Y3kxAFWbWzb-82" style="edgeStyle=orthogonalEdgeStyle;rounded=0;orthogonalLoop=1;jettySize=auto;html=1;exitX=0.25;exitY=0;exitDx=0;exitDy=0;entryX=0.25;entryY=0;entryDx=0;entryDy=0;" parent="1" target="MmGtoHiQ9Y3kxAFWbWzb-52" edge="1">
          <mxGeometry relative="1" as="geometry">
            <mxPoint x="1385" y="220" as="sourcePoint" />
          </mxGeometry>
        </mxCell>
        <mxCell id="MmGtoHiQ9Y3kxAFWbWzb-52" value="CP0Read&lt;br&gt;Proxy" style="rounded=0;whiteSpace=wrap;html=1;" parent="1" vertex="1">
          <mxGeometry x="1370" y="420" width="60" height="80" as="geometry" />
        </mxCell>
        <mxCell id="MmGtoHiQ9Y3kxAFWbWzb-53" value="HILORead&lt;br&gt;Proxy" style="rounded=0;whiteSpace=wrap;html=1;" parent="1" vertex="1">
          <mxGeometry x="1430" y="510" width="60" height="80" as="geometry" />
        </mxCell>
        <mxCell id="MmGtoHiQ9Y3kxAFWbWzb-79" style="edgeStyle=orthogonalEdgeStyle;rounded=0;orthogonalLoop=1;jettySize=auto;html=1;exitX=0.5;exitY=0;exitDx=0;exitDy=0;entryX=0.5;entryY=0;entryDx=0;entryDy=0;jumpStyle=arc;" parent="1" target="MmGtoHiQ9Y3kxAFWbWzb-48" edge="1">
          <mxGeometry relative="1" as="geometry">
            <mxPoint x="1340" y="210" as="sourcePoint" />
          </mxGeometry>
        </mxCell>
        <mxCell id="MmGtoHiQ9Y3kxAFWbWzb-81" style="edgeStyle=orthogonalEdgeStyle;rounded=0;orthogonalLoop=1;jettySize=auto;html=1;exitX=0.5;exitY=0;exitDx=0;exitDy=0;entryX=0.5;entryY=0;entryDx=0;entryDy=0;jumpStyle=arc;" parent="1" target="MmGtoHiQ9Y3kxAFWbWzb-52" edge="1">
          <mxGeometry relative="1" as="geometry">
            <mxPoint x="1400" y="210" as="sourcePoint" />
          </mxGeometry>
        </mxCell>
        <mxCell id="MmGtoHiQ9Y3kxAFWbWzb-66" style="edgeStyle=orthogonalEdgeStyle;rounded=0;orthogonalLoop=1;jettySize=auto;html=1;exitX=0.75;exitY=0;exitDx=0;exitDy=0;jumpStyle=arc;entryX=0.5;entryY=0;entryDx=0;entryDy=0;" parent="1" source="MmGtoHiQ9Y3kxAFWbWzb-48" target="4f49OWtmn93uGcDpgc6W-8" edge="1">
          <mxGeometry relative="1" as="geometry">
            <Array as="points">
              <mxPoint x="1355" y="200" />
              <mxPoint x="560" y="200" />
            </Array>
            <mxPoint x="600" y="200" as="targetPoint" />
          </mxGeometry>
        </mxCell>
        <mxCell id="MmGtoHiQ9Y3kxAFWbWzb-67" style="edgeStyle=orthogonalEdgeStyle;rounded=0;orthogonalLoop=1;jettySize=auto;html=1;entryX=0.75;entryY=0;entryDx=0;entryDy=0;jumpStyle=arc;" parent="1" target="MmGtoHiQ9Y3kxAFWbWzb-4" edge="1">
          <mxGeometry relative="1" as="geometry">
            <Array as="points">
              <mxPoint x="710" y="190" />
            </Array>
            <mxPoint x="1000" y="190" as="sourcePoint" />
          </mxGeometry>
        </mxCell>
        <mxCell id="MmGtoHiQ9Y3kxAFWbWzb-68" style="edgeStyle=orthogonalEdgeStyle;rounded=0;orthogonalLoop=1;jettySize=auto;html=1;entryX=0.5;entryY=0;entryDx=0;entryDy=0;jumpStyle=arc;" parent="1" target="MmGtoHiQ9Y3kxAFWbWzb-10" edge="1">
          <mxGeometry relative="1" as="geometry">
            <mxPoint x="1000" y="190" as="sourcePoint" />
          </mxGeometry>
        </mxCell>
        <mxCell id="4f49OWtmn93uGcDpgc6W-8" value="&lt;blockquote style=&quot;margin: 0 0 0 40px ; border: none ; padding: 0px&quot;&gt;&lt;/blockquote&gt;" style="rounded=0;whiteSpace=wrap;html=1;align=left;" parent="1" vertex="1">
          <mxGeometry x="480" y="270" width="160" height="360" as="geometry" />
        </mxCell>
        <mxCell id="4f49OWtmn93uGcDpgc6W-1" value="OperandGen" style="rounded=0;whiteSpace=wrap;html=1;" parent="1" vertex="1">
          <mxGeometry x="520" y="280" width="80" height="40" as="geometry" />
        </mxCell>
        <mxCell id="4f49OWtmn93uGcDpgc6W-2" value="CP0Gen" style="rounded=0;whiteSpace=wrap;html=1;" parent="1" vertex="1">
          <mxGeometry x="520" y="480" width="80" height="40" as="geometry" />
        </mxCell>
        <mxCell id="4f49OWtmn93uGcDpgc6W-3" value="ExceptionGen" style="rounded=0;whiteSpace=wrap;html=1;" parent="1" vertex="1">
          <mxGeometry x="520" y="530" width="80" height="40" as="geometry" />
        </mxCell>
        <mxCell id="4f49OWtmn93uGcDpgc6W-4" value="FunctGen" style="rounded=0;whiteSpace=wrap;html=1;" parent="1" vertex="1">
          <mxGeometry x="520" y="380" width="80" height="40" as="geometry" />
        </mxCell>
        <mxCell id="4f49OWtmn93uGcDpgc6W-5" value="MemGen" style="rounded=0;whiteSpace=wrap;html=1;" parent="1" vertex="1">
          <mxGeometry x="520" y="430" width="80" height="40" as="geometry" />
        </mxCell>
        <mxCell id="4f49OWtmn93uGcDpgc6W-6" value="BranchGen" style="rounded=0;whiteSpace=wrap;html=1;" parent="1" vertex="1">
          <mxGeometry x="520" y="580" width="80" height="40" as="geometry" />
        </mxCell>
        <mxCell id="4f49OWtmn93uGcDpgc6W-7" value="RegGen" style="rounded=0;whiteSpace=wrap;html=1;" parent="1" vertex="1">
          <mxGeometry x="520" y="330" width="80" height="40" as="geometry" />
        </mxCell>
        <mxCell id="4f49OWtmn93uGcDpgc6W-9" style="edgeStyle=orthogonalEdgeStyle;rounded=0;orthogonalLoop=1;jettySize=auto;html=1;exitX=0.5;exitY=1;exitDx=0;exitDy=0;" parent="1" source="4f49OWtmn93uGcDpgc6W-8" target="4f49OWtmn93uGcDpgc6W-8" edge="1">
          <mxGeometry x="480" y="270" as="geometry" />
        </mxCell>
        <mxCell id="4f49OWtmn93uGcDpgc6W-12" value="" style="endArrow=none;html=1;entryX=0.75;entryY=0;entryDx=0;entryDy=0;rounded=0;jumpStyle=arc;" parent="1" target="MmGtoHiQ9Y3kxAFWbWzb-52" edge="1">
          <mxGeometry width="50" height="50" relative="1" as="geometry">
            <mxPoint x="1000" y="190" as="sourcePoint" />
            <mxPoint x="1220" y="410" as="targetPoint" />
            <Array as="points">
              <mxPoint x="1415" y="190" />
            </Array>
          </mxGeometry>
        </mxCell>
        <mxCell id="4f49OWtmn93uGcDpgc6W-19" style="edgeStyle=orthogonalEdgeStyle;rounded=0;jumpStyle=arc;orthogonalLoop=1;jettySize=auto;html=1;exitX=0.5;exitY=0;exitDx=0;exitDy=0;endFill=1;entryX=0.5;entryY=0;entryDx=0;entryDy=0;" parent="1" target="MmGtoHiQ9Y3kxAFWbWzb-12" edge="1">
          <mxGeometry relative="1" as="geometry">
            <mxPoint x="517.5845336914062" y="270" as="sourcePoint" />
            <Array as="points">
              <mxPoint x="518" y="170" />
              <mxPoint x="1290" y="170" />
              <mxPoint x="1290" y="420" />
              <mxPoint x="1200" y="420" />
            </Array>
          </mxGeometry>
        </mxCell>
        <mxCell id="MmGtoHiQ9Y3kxAFWbWzb-72" style="edgeStyle=orthogonalEdgeStyle;rounded=0;orthogonalLoop=1;jettySize=auto;html=1;exitX=0.75;exitY=0;exitDx=0;exitDy=0;entryX=1;entryY=0.25;entryDx=0;entryDy=0;jumpStyle=arc;" parent="1" source="MmGtoHiQ9Y3kxAFWbWzb-10" target="MmGtoHiQ9Y3kxAFWbWzb-12" edge="1">
          <mxGeometry relative="1" as="geometry">
            <Array as="points">
              <mxPoint x="1020" y="250" />
              <mxPoint x="1270" y="250" />
              <mxPoint x="1270" y="450" />
            </Array>
          </mxGeometry>
        </mxCell>
        <mxCell id="4f49OWtmn93uGcDpgc6W-18" style="edgeStyle=orthogonalEdgeStyle;rounded=0;jumpStyle=arc;orthogonalLoop=1;jettySize=auto;html=1;entryX=0.5;entryY=0;entryDx=0;entryDy=0;endFill=1;" parent="1" target="MmGtoHiQ9Y3kxAFWbWzb-11" edge="1">
          <mxGeometry relative="1" as="geometry">
            <mxPoint x="530" y="270" as="sourcePoint" />
            <Array as="points">
              <mxPoint x="530" y="270" />
              <mxPoint x="530" y="180" />
              <mxPoint x="1200" y="180" />
            </Array>
          </mxGeometry>
        </mxCell>
        <mxCell id="807Y8X18UgtipFVeMdCm-1" value="" style="endArrow=none;html=1;" edge="1" parent="1">
          <mxGeometry width="50" height="50" relative="1" as="geometry">
            <mxPoint x="1340" y="210" as="sourcePoint" />
            <mxPoint x="1400" y="210" as="targetPoint" />
          </mxGeometry>
        </mxCell>
        <mxCell id="807Y8X18UgtipFVeMdCm-2" value="" style="endArrow=none;html=1;" edge="1" parent="1">
          <mxGeometry width="50" height="50" relative="1" as="geometry">
            <mxPoint x="1325" y="220" as="sourcePoint" />
            <mxPoint x="1385" y="220" as="targetPoint" />
          </mxGeometry>
        </mxCell>
        <mxCell id="807Y8X18UgtipFVeMdCm-3" value="" style="endArrow=none;html=1;exitX=1;exitY=0.25;exitDx=0;exitDy=0;jumpStyle=arc;rounded=0;" edge="1" parent="1" source="807Y8X18UgtipFVeMdCm-39">
          <mxGeometry width="50" height="50" relative="1" as="geometry">
            <mxPoint x="840" y="320" as="sourcePoint" />
            <mxPoint x="1341.3326710668102" y="210" as="targetPoint" />
            <Array as="points">
              <mxPoint x="860" y="450" />
              <mxPoint x="860" y="210" />
            </Array>
          </mxGeometry>
        </mxCell>
        <mxCell id="807Y8X18UgtipFVeMdCm-4" value="" style="endArrow=none;html=1;exitX=0.25;exitY=0;exitDx=0;exitDy=0;rounded=0;" edge="1" parent="1" source="807Y8X18UgtipFVeMdCm-42">
          <mxGeometry width="50" height="50" relative="1" as="geometry">
            <mxPoint x="975" y="440" as="sourcePoint" />
            <mxPoint x="1325" y="220" as="targetPoint" />
            <Array as="points">
              <mxPoint x="980" y="220" />
            </Array>
          </mxGeometry>
        </mxCell>
        <mxCell id="807Y8X18UgtipFVeMdCm-5" style="edgeStyle=orthogonalEdgeStyle;rounded=0;orthogonalLoop=1;jettySize=auto;html=1;exitX=0.5;exitY=1;exitDx=0;exitDy=0;entryX=0.5;entryY=1;entryDx=0;entryDy=0;" edge="1" parent="1" source="807Y8X18UgtipFVeMdCm-53" target="807Y8X18UgtipFVeMdCm-39">
          <mxGeometry relative="1" as="geometry">
            <Array as="points">
              <mxPoint x="1460" y="680" />
              <mxPoint x="800" y="680" />
            </Array>
          </mxGeometry>
        </mxCell>
        <mxCell id="807Y8X18UgtipFVeMdCm-6" value="LO" style="edgeLabel;html=1;align=center;verticalAlign=middle;resizable=0;points=[];" vertex="1" connectable="0" parent="807Y8X18UgtipFVeMdCm-5">
          <mxGeometry x="-0.9669" y="-1" relative="1" as="geometry">
            <mxPoint as="offset" />
          </mxGeometry>
        </mxCell>
        <mxCell id="807Y8X18UgtipFVeMdCm-7" style="edgeStyle=orthogonalEdgeStyle;rounded=0;orthogonalLoop=1;jettySize=auto;html=1;exitX=0.25;exitY=1;exitDx=0;exitDy=0;entryX=0.75;entryY=1;entryDx=0;entryDy=0;" edge="1" parent="1" source="807Y8X18UgtipFVeMdCm-53" target="807Y8X18UgtipFVeMdCm-39">
          <mxGeometry relative="1" as="geometry">
            <Array as="points">
              <mxPoint x="1445" y="670" />
              <mxPoint x="820" y="670" />
            </Array>
          </mxGeometry>
        </mxCell>
        <mxCell id="807Y8X18UgtipFVeMdCm-8" value="HI" style="edgeLabel;html=1;align=center;verticalAlign=middle;resizable=0;points=[];" vertex="1" connectable="0" parent="807Y8X18UgtipFVeMdCm-7">
          <mxGeometry x="-0.9623" relative="1" as="geometry">
            <mxPoint as="offset" />
          </mxGeometry>
        </mxCell>
        <mxCell id="807Y8X18UgtipFVeMdCm-9" style="edgeStyle=orthogonalEdgeStyle;rounded=0;orthogonalLoop=1;jettySize=auto;html=1;entryX=0.75;entryY=1;entryDx=0;entryDy=0;" edge="1" parent="1" source="807Y8X18UgtipFVeMdCm-59" target="807Y8X18UgtipFVeMdCm-16">
          <mxGeometry relative="1" as="geometry">
            <Array as="points">
              <mxPoint x="520" y="660" />
              <mxPoint x="340" y="660" />
            </Array>
            <mxPoint x="500" y="650" as="sourcePoint" />
          </mxGeometry>
        </mxCell>
        <mxCell id="807Y8X18UgtipFVeMdCm-10" style="edgeStyle=orthogonalEdgeStyle;rounded=0;orthogonalLoop=1;jettySize=auto;html=1;entryX=1;entryY=0.75;entryDx=0;entryDy=0;jumpStyle=arc;" edge="1" parent="1" source="807Y8X18UgtipFVeMdCm-59" target="807Y8X18UgtipFVeMdCm-46">
          <mxGeometry relative="1" as="geometry">
            <Array as="points">
              <mxPoint x="600" y="690" />
              <mxPoint x="1270" y="690" />
              <mxPoint x="1270" y="470" />
            </Array>
            <mxPoint x="620" y="670" as="sourcePoint" />
          </mxGeometry>
        </mxCell>
        <mxCell id="807Y8X18UgtipFVeMdCm-11" style="edgeStyle=orthogonalEdgeStyle;rounded=0;orthogonalLoop=1;jettySize=auto;html=1;jumpStyle=arc;" edge="1" parent="1" target="807Y8X18UgtipFVeMdCm-53">
          <mxGeometry relative="1" as="geometry">
            <Array as="points">
              <mxPoint x="1460" y="210" />
            </Array>
            <mxPoint x="1400" y="210" as="sourcePoint" />
          </mxGeometry>
        </mxCell>
        <mxCell id="807Y8X18UgtipFVeMdCm-12" style="edgeStyle=orthogonalEdgeStyle;rounded=0;orthogonalLoop=1;jettySize=auto;html=1;entryX=0.25;entryY=0;entryDx=0;entryDy=0;endFill=1;snapToPoint=0;" edge="1" parent="1" target="807Y8X18UgtipFVeMdCm-53">
          <mxGeometry relative="1" as="geometry">
            <Array as="points">
              <mxPoint x="1445" y="220" />
            </Array>
            <mxPoint x="1385" y="220" as="sourcePoint" />
          </mxGeometry>
        </mxCell>
        <mxCell id="807Y8X18UgtipFVeMdCm-13" value="PipelineController" style="rounded=0;whiteSpace=wrap;html=1;direction=south;" vertex="1" parent="1">
          <mxGeometry x="280" y="720" width="1210" height="40" as="geometry" />
        </mxCell>
        <mxCell id="807Y8X18UgtipFVeMdCm-14" style="edgeStyle=orthogonalEdgeStyle;rounded=0;orthogonalLoop=1;jettySize=auto;html=1;exitX=1;exitY=0.5;exitDx=0;exitDy=0;" edge="1" parent="1" source="807Y8X18UgtipFVeMdCm-16" target="807Y8X18UgtipFVeMdCm-19">
          <mxGeometry relative="1" as="geometry" />
        </mxCell>
        <mxCell id="807Y8X18UgtipFVeMdCm-15" style="edgeStyle=orthogonalEdgeStyle;rounded=0;orthogonalLoop=1;jettySize=auto;html=1;entryX=0.25;entryY=1;entryDx=0;entryDy=0;" edge="1" parent="1" target="807Y8X18UgtipFVeMdCm-16">
          <mxGeometry relative="1" as="geometry">
            <mxPoint x="299.9999999999998" y="719.9999999999998" as="sourcePoint" />
          </mxGeometry>
        </mxCell>
        <mxCell id="807Y8X18UgtipFVeMdCm-16" value="PC" style="rounded=0;whiteSpace=wrap;html=1;" vertex="1" parent="1">
          <mxGeometry x="280" y="440" width="80" height="40" as="geometry" />
        </mxCell>
        <mxCell id="807Y8X18UgtipFVeMdCm-17" style="edgeStyle=orthogonalEdgeStyle;rounded=0;orthogonalLoop=1;jettySize=auto;html=1;exitX=1;exitY=0.5;exitDx=0;exitDy=0;entryX=0;entryY=0.5;entryDx=0;entryDy=0;" edge="1" parent="1" source="807Y8X18UgtipFVeMdCm-19">
          <mxGeometry relative="1" as="geometry">
            <mxPoint x="479.9999999999998" y="459.9999999999998" as="targetPoint" />
          </mxGeometry>
        </mxCell>
        <mxCell id="807Y8X18UgtipFVeMdCm-18" style="edgeStyle=orthogonalEdgeStyle;rounded=0;orthogonalLoop=1;jettySize=auto;html=1;entryX=0.5;entryY=1;entryDx=0;entryDy=0;jumpStyle=arc;" edge="1" parent="1" target="807Y8X18UgtipFVeMdCm-19">
          <mxGeometry relative="1" as="geometry">
            <mxPoint x="419.9999999999998" y="719.9999999999998" as="sourcePoint" />
          </mxGeometry>
        </mxCell>
        <mxCell id="807Y8X18UgtipFVeMdCm-19" value="IF&lt;br&gt;|&lt;br&gt;ID" style="rounded=0;whiteSpace=wrap;html=1;" vertex="1" parent="1">
          <mxGeometry x="400" y="280" width="40" height="360" as="geometry" />
        </mxCell>
        <mxCell id="807Y8X18UgtipFVeMdCm-20" style="edgeStyle=orthogonalEdgeStyle;rounded=0;orthogonalLoop=1;jettySize=auto;html=1;exitX=1;exitY=0.25;exitDx=0;exitDy=0;entryX=0;entryY=0.5;entryDx=0;entryDy=0;" edge="1" parent="1" source="807Y8X18UgtipFVeMdCm-24" target="807Y8X18UgtipFVeMdCm-36">
          <mxGeometry relative="1" as="geometry" />
        </mxCell>
        <mxCell id="807Y8X18UgtipFVeMdCm-21" style="edgeStyle=orthogonalEdgeStyle;rounded=0;orthogonalLoop=1;jettySize=auto;html=1;exitX=1;exitY=0.5;exitDx=0;exitDy=0;entryX=-0.03;entryY=0.482;entryDx=0;entryDy=0;entryPerimeter=0;" edge="1" parent="1" source="807Y8X18UgtipFVeMdCm-24" target="807Y8X18UgtipFVeMdCm-39">
          <mxGeometry relative="1" as="geometry" />
        </mxCell>
        <mxCell id="807Y8X18UgtipFVeMdCm-22" style="edgeStyle=orthogonalEdgeStyle;rounded=0;orthogonalLoop=1;jettySize=auto;html=1;entryX=0.5;entryY=1;entryDx=0;entryDy=0;jumpStyle=arc;" edge="1" parent="1" target="807Y8X18UgtipFVeMdCm-24">
          <mxGeometry relative="1" as="geometry">
            <mxPoint x="699.9999999999998" y="719.9999999999998" as="sourcePoint" />
          </mxGeometry>
        </mxCell>
        <mxCell id="807Y8X18UgtipFVeMdCm-23" style="edgeStyle=orthogonalEdgeStyle;rounded=0;orthogonalLoop=1;jettySize=auto;html=1;exitX=0.25;exitY=0;exitDx=0;exitDy=0;entryX=0.75;entryY=0;entryDx=0;entryDy=0;" edge="1" parent="1" source="807Y8X18UgtipFVeMdCm-24" target="807Y8X18UgtipFVeMdCm-59">
          <mxGeometry relative="1" as="geometry">
            <Array as="points">
              <mxPoint x="690" y="240" />
              <mxPoint x="600" y="240" />
            </Array>
            <mxPoint x="620" y="240" as="targetPoint" />
          </mxGeometry>
        </mxCell>
        <mxCell id="807Y8X18UgtipFVeMdCm-24" value="ID&lt;br&gt;|&lt;br&gt;EX" style="rounded=0;whiteSpace=wrap;html=1;" vertex="1" parent="1">
          <mxGeometry x="680" y="280" width="40" height="360" as="geometry" />
        </mxCell>
        <mxCell id="807Y8X18UgtipFVeMdCm-25" style="edgeStyle=orthogonalEdgeStyle;rounded=0;orthogonalLoop=1;jettySize=auto;html=1;exitX=1;exitY=0.5;exitDx=0;exitDy=0;entryX=0;entryY=0.5;entryDx=0;entryDy=0;" edge="1" parent="1" source="807Y8X18UgtipFVeMdCm-27" target="807Y8X18UgtipFVeMdCm-42">
          <mxGeometry relative="1" as="geometry" />
        </mxCell>
        <mxCell id="807Y8X18UgtipFVeMdCm-26" style="edgeStyle=orthogonalEdgeStyle;rounded=0;orthogonalLoop=1;jettySize=auto;html=1;entryX=0.5;entryY=1;entryDx=0;entryDy=0;jumpStyle=arc;" edge="1" parent="1" target="807Y8X18UgtipFVeMdCm-27">
          <mxGeometry relative="1" as="geometry">
            <mxPoint x="900" y="719.9999999999998" as="sourcePoint" />
          </mxGeometry>
        </mxCell>
        <mxCell id="807Y8X18UgtipFVeMdCm-27" value="EX&lt;br&gt;|&lt;br&gt;MEM" style="rounded=0;whiteSpace=wrap;html=1;" vertex="1" parent="1">
          <mxGeometry x="880" y="280" width="40" height="360" as="geometry" />
        </mxCell>
        <mxCell id="807Y8X18UgtipFVeMdCm-28" style="edgeStyle=orthogonalEdgeStyle;rounded=0;orthogonalLoop=1;jettySize=auto;html=1;exitX=1;exitY=0.5;exitDx=0;exitDy=0;entryX=0;entryY=0.5;entryDx=0;entryDy=0;" edge="1" parent="1" source="807Y8X18UgtipFVeMdCm-32" target="807Y8X18UgtipFVeMdCm-46">
          <mxGeometry relative="1" as="geometry" />
        </mxCell>
        <mxCell id="807Y8X18UgtipFVeMdCm-29" style="edgeStyle=orthogonalEdgeStyle;rounded=0;orthogonalLoop=1;jettySize=auto;html=1;exitX=1;exitY=0.25;exitDx=0;exitDy=0;entryX=0;entryY=0.5;entryDx=0;entryDy=0;" edge="1" parent="1" source="807Y8X18UgtipFVeMdCm-32" target="807Y8X18UgtipFVeMdCm-44">
          <mxGeometry relative="1" as="geometry" />
        </mxCell>
        <mxCell id="807Y8X18UgtipFVeMdCm-30" style="edgeStyle=orthogonalEdgeStyle;rounded=0;orthogonalLoop=1;jettySize=auto;html=1;exitX=1;exitY=0.75;exitDx=0;exitDy=0;entryX=0;entryY=0.5;entryDx=0;entryDy=0;" edge="1" parent="1" source="807Y8X18UgtipFVeMdCm-32" target="807Y8X18UgtipFVeMdCm-48">
          <mxGeometry relative="1" as="geometry" />
        </mxCell>
        <mxCell id="807Y8X18UgtipFVeMdCm-31" style="edgeStyle=orthogonalEdgeStyle;rounded=0;orthogonalLoop=1;jettySize=auto;html=1;entryX=0.5;entryY=1;entryDx=0;entryDy=0;jumpStyle=arc;" edge="1" parent="1" target="807Y8X18UgtipFVeMdCm-32">
          <mxGeometry relative="1" as="geometry">
            <mxPoint x="1100" y="719.9999999999998" as="sourcePoint" />
          </mxGeometry>
        </mxCell>
        <mxCell id="807Y8X18UgtipFVeMdCm-32" value="MEM&lt;br&gt;|&lt;br&gt;WB" style="rounded=0;whiteSpace=wrap;html=1;" vertex="1" parent="1">
          <mxGeometry x="1080" y="280" width="40" height="360" as="geometry" />
        </mxCell>
        <mxCell id="807Y8X18UgtipFVeMdCm-33" style="edgeStyle=orthogonalEdgeStyle;rounded=0;orthogonalLoop=1;jettySize=auto;html=1;exitX=1;exitY=0.5;exitDx=0;exitDy=0;entryX=0;entryY=0.5;entryDx=0;entryDy=0;" edge="1" parent="1" target="807Y8X18UgtipFVeMdCm-24">
          <mxGeometry relative="1" as="geometry">
            <mxPoint x="639.9999999999998" y="459.9999999999998" as="sourcePoint" />
          </mxGeometry>
        </mxCell>
        <mxCell id="807Y8X18UgtipFVeMdCm-34" style="edgeStyle=orthogonalEdgeStyle;rounded=0;orthogonalLoop=1;jettySize=auto;html=1;exitX=0.5;exitY=1;exitDx=0;exitDy=0;" edge="1" parent="1" source="807Y8X18UgtipFVeMdCm-59">
          <mxGeometry relative="1" as="geometry">
            <mxPoint x="600" y="660" as="sourcePoint" />
            <mxPoint x="559.9999999999998" y="719.9999999999998" as="targetPoint" />
            <Array as="points">
              <mxPoint x="560" y="720" />
            </Array>
          </mxGeometry>
        </mxCell>
        <mxCell id="807Y8X18UgtipFVeMdCm-35" style="edgeStyle=orthogonalEdgeStyle;rounded=0;orthogonalLoop=1;jettySize=auto;html=1;exitX=0.5;exitY=1;exitDx=0;exitDy=0;entryX=0.5;entryY=0;entryDx=0;entryDy=0;" edge="1" parent="1" source="807Y8X18UgtipFVeMdCm-36" target="807Y8X18UgtipFVeMdCm-39">
          <mxGeometry relative="1" as="geometry" />
        </mxCell>
        <mxCell id="807Y8X18UgtipFVeMdCm-36" value="MULT&lt;br&gt;DIV" style="rounded=0;whiteSpace=wrap;html=1;" vertex="1" parent="1">
          <mxGeometry x="760" y="350" width="80" height="40" as="geometry" />
        </mxCell>
        <mxCell id="807Y8X18UgtipFVeMdCm-37" style="edgeStyle=orthogonalEdgeStyle;rounded=0;orthogonalLoop=1;jettySize=auto;html=1;exitX=1;exitY=0.5;exitDx=0;exitDy=0;entryX=0;entryY=0.5;entryDx=0;entryDy=0;" edge="1" parent="1" source="807Y8X18UgtipFVeMdCm-39" target="807Y8X18UgtipFVeMdCm-27">
          <mxGeometry relative="1" as="geometry" />
        </mxCell>
        <mxCell id="807Y8X18UgtipFVeMdCm-38" style="edgeStyle=orthogonalEdgeStyle;rounded=0;orthogonalLoop=1;jettySize=auto;html=1;exitX=0.25;exitY=1;exitDx=0;exitDy=0;jumpStyle=arc;" edge="1" parent="1" source="807Y8X18UgtipFVeMdCm-39">
          <mxGeometry relative="1" as="geometry">
            <mxPoint x="780" y="719.9999999999998" as="targetPoint" />
          </mxGeometry>
        </mxCell>
        <mxCell id="807Y8X18UgtipFVeMdCm-39" value="ALU" style="rounded=0;whiteSpace=wrap;html=1;" vertex="1" parent="1">
          <mxGeometry x="760" y="440" width="80" height="40" as="geometry" />
        </mxCell>
        <mxCell id="807Y8X18UgtipFVeMdCm-40" style="edgeStyle=orthogonalEdgeStyle;rounded=0;orthogonalLoop=1;jettySize=auto;html=1;exitX=1;exitY=0.5;exitDx=0;exitDy=0;entryX=0;entryY=0.5;entryDx=0;entryDy=0;" edge="1" parent="1" source="807Y8X18UgtipFVeMdCm-42" target="807Y8X18UgtipFVeMdCm-32">
          <mxGeometry relative="1" as="geometry" />
        </mxCell>
        <mxCell id="807Y8X18UgtipFVeMdCm-41" style="edgeStyle=orthogonalEdgeStyle;rounded=0;orthogonalLoop=1;jettySize=auto;html=1;exitX=0.5;exitY=1;exitDx=0;exitDy=0;jumpStyle=arc;" edge="1" parent="1" source="807Y8X18UgtipFVeMdCm-42">
          <mxGeometry relative="1" as="geometry">
            <mxPoint x="1000" y="719.9999999999998" as="targetPoint" />
          </mxGeometry>
        </mxCell>
        <mxCell id="807Y8X18UgtipFVeMdCm-42" value="MEM" style="rounded=0;whiteSpace=wrap;html=1;" vertex="1" parent="1">
          <mxGeometry x="960" y="440" width="80" height="40" as="geometry" />
        </mxCell>
        <mxCell id="807Y8X18UgtipFVeMdCm-43" style="edgeStyle=orthogonalEdgeStyle;rounded=0;orthogonalLoop=1;jettySize=auto;html=1;exitX=1;exitY=0.5;exitDx=0;exitDy=0;entryX=0;entryY=0.5;entryDx=0;entryDy=0;" edge="1" parent="1" source="807Y8X18UgtipFVeMdCm-44" target="807Y8X18UgtipFVeMdCm-50">
          <mxGeometry relative="1" as="geometry" />
        </mxCell>
        <mxCell id="807Y8X18UgtipFVeMdCm-44" value="RegFIle" style="rounded=0;whiteSpace=wrap;html=1;" vertex="1" parent="1">
          <mxGeometry x="1160" y="350" width="80" height="40" as="geometry" />
        </mxCell>
        <mxCell id="807Y8X18UgtipFVeMdCm-45" style="edgeStyle=orthogonalEdgeStyle;rounded=0;orthogonalLoop=1;jettySize=auto;html=1;exitX=1;exitY=0.5;exitDx=0;exitDy=0;entryX=0;entryY=0.5;entryDx=0;entryDy=0;" edge="1" parent="1" source="807Y8X18UgtipFVeMdCm-46" target="807Y8X18UgtipFVeMdCm-52">
          <mxGeometry relative="1" as="geometry" />
        </mxCell>
        <mxCell id="807Y8X18UgtipFVeMdCm-46" value="CP0" style="rounded=0;whiteSpace=wrap;html=1;" vertex="1" parent="1">
          <mxGeometry x="1160" y="440" width="80" height="40" as="geometry" />
        </mxCell>
        <mxCell id="807Y8X18UgtipFVeMdCm-47" style="edgeStyle=orthogonalEdgeStyle;rounded=0;orthogonalLoop=1;jettySize=auto;html=1;exitX=1;exitY=0.5;exitDx=0;exitDy=0;entryX=0;entryY=0.5;entryDx=0;entryDy=0;" edge="1" parent="1" source="807Y8X18UgtipFVeMdCm-48" target="807Y8X18UgtipFVeMdCm-53">
          <mxGeometry relative="1" as="geometry" />
        </mxCell>
        <mxCell id="807Y8X18UgtipFVeMdCm-48" value="HILO" style="rounded=0;whiteSpace=wrap;html=1;" vertex="1" parent="1">
          <mxGeometry x="1160" y="530" width="80" height="40" as="geometry" />
        </mxCell>
        <mxCell id="807Y8X18UgtipFVeMdCm-49" style="edgeStyle=orthogonalEdgeStyle;rounded=0;orthogonalLoop=1;jettySize=auto;html=1;exitX=0.25;exitY=0;exitDx=0;exitDy=0;entryX=0.25;entryY=0;entryDx=0;entryDy=0;" edge="1" parent="1" target="807Y8X18UgtipFVeMdCm-50">
          <mxGeometry relative="1" as="geometry">
            <mxPoint x="1325" y="220" as="sourcePoint" />
          </mxGeometry>
        </mxCell>
        <mxCell id="807Y8X18UgtipFVeMdCm-50" value="RegRead&lt;br&gt;Proxy" style="rounded=0;whiteSpace=wrap;html=1;" vertex="1" parent="1">
          <mxGeometry x="1310" y="330" width="60" height="80" as="geometry" />
        </mxCell>
        <mxCell id="807Y8X18UgtipFVeMdCm-51" style="edgeStyle=orthogonalEdgeStyle;rounded=0;orthogonalLoop=1;jettySize=auto;html=1;exitX=0.25;exitY=0;exitDx=0;exitDy=0;entryX=0.25;entryY=0;entryDx=0;entryDy=0;" edge="1" parent="1" target="807Y8X18UgtipFVeMdCm-52">
          <mxGeometry relative="1" as="geometry">
            <mxPoint x="1385" y="220" as="sourcePoint" />
          </mxGeometry>
        </mxCell>
        <mxCell id="807Y8X18UgtipFVeMdCm-52" value="CP0Read&lt;br&gt;Proxy" style="rounded=0;whiteSpace=wrap;html=1;" vertex="1" parent="1">
          <mxGeometry x="1370" y="420" width="60" height="80" as="geometry" />
        </mxCell>
        <mxCell id="807Y8X18UgtipFVeMdCm-53" value="HILORead&lt;br&gt;Proxy" style="rounded=0;whiteSpace=wrap;html=1;" vertex="1" parent="1">
          <mxGeometry x="1430" y="510" width="60" height="80" as="geometry" />
        </mxCell>
        <mxCell id="807Y8X18UgtipFVeMdCm-54" style="edgeStyle=orthogonalEdgeStyle;rounded=0;orthogonalLoop=1;jettySize=auto;html=1;exitX=0.5;exitY=0;exitDx=0;exitDy=0;entryX=0.5;entryY=0;entryDx=0;entryDy=0;jumpStyle=arc;" edge="1" parent="1" target="807Y8X18UgtipFVeMdCm-50">
          <mxGeometry relative="1" as="geometry">
            <mxPoint x="1340" y="210" as="sourcePoint" />
          </mxGeometry>
        </mxCell>
        <mxCell id="807Y8X18UgtipFVeMdCm-55" style="edgeStyle=orthogonalEdgeStyle;rounded=0;orthogonalLoop=1;jettySize=auto;html=1;exitX=0.5;exitY=0;exitDx=0;exitDy=0;entryX=0.5;entryY=0;entryDx=0;entryDy=0;jumpStyle=arc;" edge="1" parent="1" target="807Y8X18UgtipFVeMdCm-52">
          <mxGeometry relative="1" as="geometry">
            <mxPoint x="1400" y="210" as="sourcePoint" />
          </mxGeometry>
        </mxCell>
        <mxCell id="807Y8X18UgtipFVeMdCm-56" style="edgeStyle=orthogonalEdgeStyle;rounded=0;orthogonalLoop=1;jettySize=auto;html=1;exitX=0.75;exitY=0;exitDx=0;exitDy=0;jumpStyle=arc;entryX=0.5;entryY=0;entryDx=0;entryDy=0;" edge="1" parent="1" source="807Y8X18UgtipFVeMdCm-50" target="807Y8X18UgtipFVeMdCm-59">
          <mxGeometry relative="1" as="geometry">
            <Array as="points">
              <mxPoint x="1355" y="200" />
              <mxPoint x="560" y="200" />
            </Array>
            <mxPoint x="600" y="200" as="targetPoint" />
          </mxGeometry>
        </mxCell>
        <mxCell id="807Y8X18UgtipFVeMdCm-57" style="edgeStyle=orthogonalEdgeStyle;rounded=0;orthogonalLoop=1;jettySize=auto;html=1;entryX=0.75;entryY=0;entryDx=0;entryDy=0;jumpStyle=arc;" edge="1" parent="1" target="807Y8X18UgtipFVeMdCm-24">
          <mxGeometry relative="1" as="geometry">
            <Array as="points">
              <mxPoint x="710" y="190" />
            </Array>
            <mxPoint x="1000" y="190" as="sourcePoint" />
          </mxGeometry>
        </mxCell>
        <mxCell id="807Y8X18UgtipFVeMdCm-58" style="edgeStyle=orthogonalEdgeStyle;rounded=0;orthogonalLoop=1;jettySize=auto;html=1;entryX=0.5;entryY=0;entryDx=0;entryDy=0;jumpStyle=arc;" edge="1" parent="1" target="807Y8X18UgtipFVeMdCm-42">
          <mxGeometry relative="1" as="geometry">
            <mxPoint x="1000" y="190" as="sourcePoint" />
          </mxGeometry>
        </mxCell>
        <mxCell id="807Y8X18UgtipFVeMdCm-59" value="&lt;blockquote style=&quot;margin: 0 0 0 40px ; border: none ; padding: 0px&quot;&gt;&lt;/blockquote&gt;" style="rounded=0;whiteSpace=wrap;html=1;align=left;" vertex="1" parent="1">
          <mxGeometry x="480" y="270" width="160" height="360" as="geometry" />
        </mxCell>
        <mxCell id="807Y8X18UgtipFVeMdCm-60" value="OperandGen" style="rounded=0;whiteSpace=wrap;html=1;" vertex="1" parent="1">
          <mxGeometry x="520" y="280" width="80" height="40" as="geometry" />
        </mxCell>
        <mxCell id="807Y8X18UgtipFVeMdCm-61" value="CP0Gen" style="rounded=0;whiteSpace=wrap;html=1;" vertex="1" parent="1">
          <mxGeometry x="520" y="480" width="80" height="40" as="geometry" />
        </mxCell>
        <mxCell id="807Y8X18UgtipFVeMdCm-62" value="ExceptionGen" style="rounded=0;whiteSpace=wrap;html=1;" vertex="1" parent="1">
          <mxGeometry x="520" y="530" width="80" height="40" as="geometry" />
        </mxCell>
        <mxCell id="807Y8X18UgtipFVeMdCm-63" value="FunctGen" style="rounded=0;whiteSpace=wrap;html=1;" vertex="1" parent="1">
          <mxGeometry x="520" y="380" width="80" height="40" as="geometry" />
        </mxCell>
        <mxCell id="807Y8X18UgtipFVeMdCm-64" value="MemGen" style="rounded=0;whiteSpace=wrap;html=1;" vertex="1" parent="1">
          <mxGeometry x="520" y="430" width="80" height="40" as="geometry" />
        </mxCell>
        <mxCell id="807Y8X18UgtipFVeMdCm-65" value="BranchGen" style="rounded=0;whiteSpace=wrap;html=1;" vertex="1" parent="1">
          <mxGeometry x="520" y="580" width="80" height="40" as="geometry" />
        </mxCell>
        <mxCell id="807Y8X18UgtipFVeMdCm-66" value="RegGen" style="rounded=0;whiteSpace=wrap;html=1;" vertex="1" parent="1">
          <mxGeometry x="520" y="330" width="80" height="40" as="geometry" />
        </mxCell>
        <mxCell id="807Y8X18UgtipFVeMdCm-67" style="edgeStyle=orthogonalEdgeStyle;rounded=0;orthogonalLoop=1;jettySize=auto;html=1;exitX=0.5;exitY=1;exitDx=0;exitDy=0;" edge="1" parent="1" source="807Y8X18UgtipFVeMdCm-59" target="807Y8X18UgtipFVeMdCm-59">
          <mxGeometry x="480" y="270" as="geometry" />
        </mxCell>
        <mxCell id="807Y8X18UgtipFVeMdCm-68" value="" style="endArrow=none;html=1;entryX=0.75;entryY=0;entryDx=0;entryDy=0;rounded=0;jumpStyle=arc;" edge="1" parent="1" target="807Y8X18UgtipFVeMdCm-52">
          <mxGeometry width="50" height="50" relative="1" as="geometry">
            <mxPoint x="1000" y="190" as="sourcePoint" />
            <mxPoint x="1220" y="410" as="targetPoint" />
            <Array as="points">
              <mxPoint x="1415" y="190" />
            </Array>
          </mxGeometry>
        </mxCell>
        <mxCell id="807Y8X18UgtipFVeMdCm-69" style="edgeStyle=orthogonalEdgeStyle;rounded=0;jumpStyle=arc;orthogonalLoop=1;jettySize=auto;html=1;exitX=0.5;exitY=0;exitDx=0;exitDy=0;endFill=1;entryX=0.5;entryY=0;entryDx=0;entryDy=0;" edge="1" parent="1" target="807Y8X18UgtipFVeMdCm-46">
          <mxGeometry relative="1" as="geometry">
            <mxPoint x="517.584533691406" y="270" as="sourcePoint" />
            <Array as="points">
              <mxPoint x="518" y="170" />
              <mxPoint x="1290" y="170" />
              <mxPoint x="1290" y="420" />
              <mxPoint x="1200" y="420" />
            </Array>
          </mxGeometry>
        </mxCell>
        <mxCell id="807Y8X18UgtipFVeMdCm-70" style="edgeStyle=orthogonalEdgeStyle;rounded=0;orthogonalLoop=1;jettySize=auto;html=1;exitX=0.75;exitY=0;exitDx=0;exitDy=0;entryX=1;entryY=0.25;entryDx=0;entryDy=0;jumpStyle=arc;" edge="1" parent="1" source="807Y8X18UgtipFVeMdCm-42" target="807Y8X18UgtipFVeMdCm-46">
          <mxGeometry relative="1" as="geometry">
            <Array as="points">
              <mxPoint x="1020" y="250" />
              <mxPoint x="1270" y="250" />
              <mxPoint x="1270" y="450" />
            </Array>
          </mxGeometry>
        </mxCell>
        <mxCell id="807Y8X18UgtipFVeMdCm-71" style="edgeStyle=orthogonalEdgeStyle;rounded=0;jumpStyle=arc;orthogonalLoop=1;jettySize=auto;html=1;entryX=0.5;entryY=0;entryDx=0;entryDy=0;endFill=1;" edge="1" parent="1" target="807Y8X18UgtipFVeMdCm-44">
          <mxGeometry relative="1" as="geometry">
            <mxPoint x="529.9999999999998" y="270" as="sourcePoint" />
            <Array as="points">
              <mxPoint x="530" y="270" />
              <mxPoint x="530" y="180" />
              <mxPoint x="1200" y="180" />
            </Array>
          </mxGeometry>
        </mxCell>
        <mxCell id="807Y8X18UgtipFVeMdCm-72" value="" style="endArrow=none;html=1;" edge="1" parent="1">
          <mxGeometry width="50" height="50" relative="1" as="geometry">
            <mxPoint x="1340" y="210" as="sourcePoint" />
            <mxPoint x="1400" y="210" as="targetPoint" />
          </mxGeometry>
        </mxCell>
        <mxCell id="807Y8X18UgtipFVeMdCm-73" value="" style="endArrow=none;html=1;" edge="1" parent="1">
          <mxGeometry width="50" height="50" relative="1" as="geometry">
            <mxPoint x="1325" y="220" as="sourcePoint" />
            <mxPoint x="1385" y="220" as="targetPoint" />
          </mxGeometry>
        </mxCell>
        <mxCell id="807Y8X18UgtipFVeMdCm-74" value="" style="endArrow=none;html=1;exitX=1;exitY=0.25;exitDx=0;exitDy=0;jumpStyle=arc;rounded=0;" edge="1" parent="1" source="807Y8X18UgtipFVeMdCm-110">
          <mxGeometry width="50" height="50" relative="1" as="geometry">
            <mxPoint x="840" y="320" as="sourcePoint" />
            <mxPoint x="1341.3326710668102" y="210" as="targetPoint" />
            <Array as="points">
              <mxPoint x="860" y="450" />
              <mxPoint x="860" y="210" />
            </Array>
          </mxGeometry>
        </mxCell>
        <mxCell id="807Y8X18UgtipFVeMdCm-75" value="" style="endArrow=none;html=1;exitX=0.25;exitY=0;exitDx=0;exitDy=0;rounded=0;" edge="1" parent="1" source="807Y8X18UgtipFVeMdCm-113">
          <mxGeometry width="50" height="50" relative="1" as="geometry">
            <mxPoint x="975" y="440" as="sourcePoint" />
            <mxPoint x="1325" y="220" as="targetPoint" />
            <Array as="points">
              <mxPoint x="980" y="220" />
            </Array>
          </mxGeometry>
        </mxCell>
        <mxCell id="807Y8X18UgtipFVeMdCm-76" style="edgeStyle=orthogonalEdgeStyle;rounded=0;orthogonalLoop=1;jettySize=auto;html=1;exitX=0.5;exitY=1;exitDx=0;exitDy=0;entryX=0.5;entryY=1;entryDx=0;entryDy=0;" edge="1" parent="1" source="807Y8X18UgtipFVeMdCm-124" target="807Y8X18UgtipFVeMdCm-110">
          <mxGeometry relative="1" as="geometry">
            <Array as="points">
              <mxPoint x="1460" y="680" />
              <mxPoint x="800" y="680" />
            </Array>
          </mxGeometry>
        </mxCell>
        <mxCell id="807Y8X18UgtipFVeMdCm-77" value="LO" style="edgeLabel;html=1;align=center;verticalAlign=middle;resizable=0;points=[];" vertex="1" connectable="0" parent="807Y8X18UgtipFVeMdCm-76">
          <mxGeometry x="-0.9669" y="-1" relative="1" as="geometry">
            <mxPoint as="offset" />
          </mxGeometry>
        </mxCell>
        <mxCell id="807Y8X18UgtipFVeMdCm-78" style="edgeStyle=orthogonalEdgeStyle;rounded=0;orthogonalLoop=1;jettySize=auto;html=1;exitX=0.25;exitY=1;exitDx=0;exitDy=0;entryX=0.75;entryY=1;entryDx=0;entryDy=0;" edge="1" parent="1" source="807Y8X18UgtipFVeMdCm-124" target="807Y8X18UgtipFVeMdCm-110">
          <mxGeometry relative="1" as="geometry">
            <Array as="points">
              <mxPoint x="1445" y="670" />
              <mxPoint x="820" y="670" />
            </Array>
          </mxGeometry>
        </mxCell>
        <mxCell id="807Y8X18UgtipFVeMdCm-79" value="HI" style="edgeLabel;html=1;align=center;verticalAlign=middle;resizable=0;points=[];" vertex="1" connectable="0" parent="807Y8X18UgtipFVeMdCm-78">
          <mxGeometry x="-0.9623" relative="1" as="geometry">
            <mxPoint as="offset" />
          </mxGeometry>
        </mxCell>
        <mxCell id="807Y8X18UgtipFVeMdCm-80" style="edgeStyle=orthogonalEdgeStyle;rounded=0;orthogonalLoop=1;jettySize=auto;html=1;entryX=0.75;entryY=1;entryDx=0;entryDy=0;" edge="1" parent="1" source="807Y8X18UgtipFVeMdCm-130" target="807Y8X18UgtipFVeMdCm-87">
          <mxGeometry relative="1" as="geometry">
            <Array as="points">
              <mxPoint x="520" y="660" />
              <mxPoint x="340" y="660" />
            </Array>
            <mxPoint x="500" y="650" as="sourcePoint" />
          </mxGeometry>
        </mxCell>
        <mxCell id="807Y8X18UgtipFVeMdCm-81" style="edgeStyle=orthogonalEdgeStyle;rounded=0;orthogonalLoop=1;jettySize=auto;html=1;entryX=1;entryY=0.75;entryDx=0;entryDy=0;jumpStyle=arc;" edge="1" parent="1" source="807Y8X18UgtipFVeMdCm-130" target="807Y8X18UgtipFVeMdCm-117">
          <mxGeometry relative="1" as="geometry">
            <Array as="points">
              <mxPoint x="600" y="690" />
              <mxPoint x="1270" y="690" />
              <mxPoint x="1270" y="470" />
            </Array>
            <mxPoint x="620" y="670" as="sourcePoint" />
          </mxGeometry>
        </mxCell>
        <mxCell id="807Y8X18UgtipFVeMdCm-82" style="edgeStyle=orthogonalEdgeStyle;rounded=0;orthogonalLoop=1;jettySize=auto;html=1;jumpStyle=arc;" edge="1" parent="1" target="807Y8X18UgtipFVeMdCm-124">
          <mxGeometry relative="1" as="geometry">
            <Array as="points">
              <mxPoint x="1460" y="210" />
            </Array>
            <mxPoint x="1400" y="210" as="sourcePoint" />
          </mxGeometry>
        </mxCell>
        <mxCell id="807Y8X18UgtipFVeMdCm-83" style="edgeStyle=orthogonalEdgeStyle;rounded=0;orthogonalLoop=1;jettySize=auto;html=1;entryX=0.25;entryY=0;entryDx=0;entryDy=0;endFill=1;snapToPoint=0;" edge="1" parent="1" target="807Y8X18UgtipFVeMdCm-124">
          <mxGeometry relative="1" as="geometry">
            <Array as="points">
              <mxPoint x="1445" y="220" />
            </Array>
            <mxPoint x="1385" y="220" as="sourcePoint" />
          </mxGeometry>
        </mxCell>
        <mxCell id="807Y8X18UgtipFVeMdCm-84" value="PipelineController" style="rounded=0;whiteSpace=wrap;html=1;direction=south;" vertex="1" parent="1">
          <mxGeometry x="280" y="720" width="1210" height="40" as="geometry" />
        </mxCell>
        <mxCell id="807Y8X18UgtipFVeMdCm-85" style="edgeStyle=orthogonalEdgeStyle;rounded=0;orthogonalLoop=1;jettySize=auto;html=1;exitX=1;exitY=0.5;exitDx=0;exitDy=0;fillColor=#f8cecc;strokeColor=#b85450;" edge="1" parent="1" source="807Y8X18UgtipFVeMdCm-87" target="807Y8X18UgtipFVeMdCm-90">
          <mxGeometry relative="1" as="geometry" />
        </mxCell>
        <mxCell id="807Y8X18UgtipFVeMdCm-86" style="edgeStyle=orthogonalEdgeStyle;rounded=0;orthogonalLoop=1;jettySize=auto;html=1;entryX=0.25;entryY=1;entryDx=0;entryDy=0;" edge="1" parent="1" target="807Y8X18UgtipFVeMdCm-87">
          <mxGeometry relative="1" as="geometry">
            <mxPoint x="299.9999999999998" y="719.9999999999998" as="sourcePoint" />
          </mxGeometry>
        </mxCell>
        <mxCell id="807Y8X18UgtipFVeMdCm-87" value="PC" style="rounded=0;whiteSpace=wrap;html=1;fillColor=#dae8fc;strokeColor=#6c8ebf;" vertex="1" parent="1">
          <mxGeometry x="280" y="440" width="80" height="40" as="geometry" />
        </mxCell>
        <mxCell id="807Y8X18UgtipFVeMdCm-88" style="edgeStyle=orthogonalEdgeStyle;rounded=0;orthogonalLoop=1;jettySize=auto;html=1;exitX=1;exitY=0.5;exitDx=0;exitDy=0;entryX=0;entryY=0.5;entryDx=0;entryDy=0;fillColor=#f8cecc;strokeColor=#b85450;" edge="1" parent="1" source="807Y8X18UgtipFVeMdCm-90">
          <mxGeometry relative="1" as="geometry">
            <mxPoint x="479.9999999999998" y="459.9999999999998" as="targetPoint" />
          </mxGeometry>
        </mxCell>
        <mxCell id="807Y8X18UgtipFVeMdCm-89" style="edgeStyle=orthogonalEdgeStyle;rounded=0;orthogonalLoop=1;jettySize=auto;html=1;entryX=0.5;entryY=1;entryDx=0;entryDy=0;jumpStyle=arc;" edge="1" parent="1" target="807Y8X18UgtipFVeMdCm-90">
          <mxGeometry relative="1" as="geometry">
            <mxPoint x="419.9999999999998" y="719.9999999999998" as="sourcePoint" />
          </mxGeometry>
        </mxCell>
        <mxCell id="807Y8X18UgtipFVeMdCm-90" value="IF&lt;br&gt;|&lt;br&gt;ID" style="rounded=0;whiteSpace=wrap;html=1;fillColor=#dae8fc;strokeColor=#6c8ebf;" vertex="1" parent="1">
          <mxGeometry x="400" y="280" width="40" height="360" as="geometry" />
        </mxCell>
        <mxCell id="807Y8X18UgtipFVeMdCm-91" style="edgeStyle=orthogonalEdgeStyle;rounded=0;orthogonalLoop=1;jettySize=auto;html=1;exitX=1;exitY=0.25;exitDx=0;exitDy=0;entryX=0;entryY=0.5;entryDx=0;entryDy=0;" edge="1" parent="1" source="807Y8X18UgtipFVeMdCm-95" target="807Y8X18UgtipFVeMdCm-107">
          <mxGeometry relative="1" as="geometry" />
        </mxCell>
        <mxCell id="807Y8X18UgtipFVeMdCm-92" style="edgeStyle=orthogonalEdgeStyle;rounded=0;orthogonalLoop=1;jettySize=auto;html=1;exitX=1;exitY=0.5;exitDx=0;exitDy=0;entryX=-0.03;entryY=0.482;entryDx=0;entryDy=0;entryPerimeter=0;fillColor=#f8cecc;strokeColor=#b85450;" edge="1" parent="1" source="807Y8X18UgtipFVeMdCm-95" target="807Y8X18UgtipFVeMdCm-110">
          <mxGeometry relative="1" as="geometry" />
        </mxCell>
        <mxCell id="807Y8X18UgtipFVeMdCm-93" style="edgeStyle=orthogonalEdgeStyle;rounded=0;orthogonalLoop=1;jettySize=auto;html=1;entryX=0.5;entryY=1;entryDx=0;entryDy=0;jumpStyle=arc;" edge="1" parent="1" target="807Y8X18UgtipFVeMdCm-95">
          <mxGeometry relative="1" as="geometry">
            <mxPoint x="699.9999999999998" y="719.9999999999998" as="sourcePoint" />
          </mxGeometry>
        </mxCell>
        <mxCell id="807Y8X18UgtipFVeMdCm-94" style="edgeStyle=orthogonalEdgeStyle;rounded=0;orthogonalLoop=1;jettySize=auto;html=1;exitX=0.25;exitY=0;exitDx=0;exitDy=0;entryX=0.75;entryY=0;entryDx=0;entryDy=0;" edge="1" parent="1" source="807Y8X18UgtipFVeMdCm-95" target="807Y8X18UgtipFVeMdCm-130">
          <mxGeometry relative="1" as="geometry">
            <Array as="points">
              <mxPoint x="690" y="240" />
              <mxPoint x="600" y="240" />
            </Array>
            <mxPoint x="620" y="240" as="targetPoint" />
          </mxGeometry>
        </mxCell>
        <mxCell id="807Y8X18UgtipFVeMdCm-95" value="ID&lt;br&gt;|&lt;br&gt;EX" style="rounded=0;whiteSpace=wrap;html=1;fillColor=#dae8fc;strokeColor=#6c8ebf;" vertex="1" parent="1">
          <mxGeometry x="680" y="280" width="40" height="360" as="geometry" />
        </mxCell>
        <mxCell id="807Y8X18UgtipFVeMdCm-96" style="edgeStyle=orthogonalEdgeStyle;rounded=0;orthogonalLoop=1;jettySize=auto;html=1;exitX=1;exitY=0.5;exitDx=0;exitDy=0;entryX=0;entryY=0.5;entryDx=0;entryDy=0;fillColor=#f8cecc;strokeColor=#b85450;" edge="1" parent="1" source="807Y8X18UgtipFVeMdCm-98" target="807Y8X18UgtipFVeMdCm-113">
          <mxGeometry relative="1" as="geometry" />
        </mxCell>
        <mxCell id="807Y8X18UgtipFVeMdCm-97" style="edgeStyle=orthogonalEdgeStyle;rounded=0;orthogonalLoop=1;jettySize=auto;html=1;entryX=0.5;entryY=1;entryDx=0;entryDy=0;jumpStyle=arc;" edge="1" parent="1" target="807Y8X18UgtipFVeMdCm-98">
          <mxGeometry relative="1" as="geometry">
            <mxPoint x="900" y="719.9999999999998" as="sourcePoint" />
          </mxGeometry>
        </mxCell>
        <mxCell id="807Y8X18UgtipFVeMdCm-98" value="EX&lt;br&gt;|&lt;br&gt;MEM" style="rounded=0;whiteSpace=wrap;html=1;fillColor=#dae8fc;strokeColor=#6c8ebf;" vertex="1" parent="1">
          <mxGeometry x="880" y="280" width="40" height="360" as="geometry" />
        </mxCell>
        <mxCell id="807Y8X18UgtipFVeMdCm-99" style="edgeStyle=orthogonalEdgeStyle;rounded=0;orthogonalLoop=1;jettySize=auto;html=1;exitX=1;exitY=0.5;exitDx=0;exitDy=0;entryX=0;entryY=0.5;entryDx=0;entryDy=0;" edge="1" parent="1" source="807Y8X18UgtipFVeMdCm-103" target="807Y8X18UgtipFVeMdCm-117">
          <mxGeometry relative="1" as="geometry" />
        </mxCell>
        <mxCell id="807Y8X18UgtipFVeMdCm-100" style="edgeStyle=orthogonalEdgeStyle;rounded=0;orthogonalLoop=1;jettySize=auto;html=1;exitX=1;exitY=0.25;exitDx=0;exitDy=0;entryX=0;entryY=0.5;entryDx=0;entryDy=0;fillColor=#f8cecc;strokeColor=#b85450;" edge="1" parent="1" source="807Y8X18UgtipFVeMdCm-103" target="807Y8X18UgtipFVeMdCm-115">
          <mxGeometry relative="1" as="geometry" />
        </mxCell>
        <mxCell id="807Y8X18UgtipFVeMdCm-101" style="edgeStyle=orthogonalEdgeStyle;rounded=0;orthogonalLoop=1;jettySize=auto;html=1;exitX=1;exitY=0.75;exitDx=0;exitDy=0;entryX=0;entryY=0.5;entryDx=0;entryDy=0;" edge="1" parent="1" source="807Y8X18UgtipFVeMdCm-103" target="807Y8X18UgtipFVeMdCm-119">
          <mxGeometry relative="1" as="geometry" />
        </mxCell>
        <mxCell id="807Y8X18UgtipFVeMdCm-102" style="edgeStyle=orthogonalEdgeStyle;rounded=0;orthogonalLoop=1;jettySize=auto;html=1;entryX=0.5;entryY=1;entryDx=0;entryDy=0;jumpStyle=arc;" edge="1" parent="1" target="807Y8X18UgtipFVeMdCm-103">
          <mxGeometry relative="1" as="geometry">
            <mxPoint x="1100" y="719.9999999999998" as="sourcePoint" />
          </mxGeometry>
        </mxCell>
        <mxCell id="807Y8X18UgtipFVeMdCm-103" value="MEM&lt;br&gt;|&lt;br&gt;WB" style="rounded=0;whiteSpace=wrap;html=1;fillColor=#dae8fc;strokeColor=#6c8ebf;" vertex="1" parent="1">
          <mxGeometry x="1080" y="280" width="40" height="360" as="geometry" />
        </mxCell>
        <mxCell id="807Y8X18UgtipFVeMdCm-104" style="edgeStyle=orthogonalEdgeStyle;rounded=0;orthogonalLoop=1;jettySize=auto;html=1;exitX=1;exitY=0.5;exitDx=0;exitDy=0;entryX=0;entryY=0.5;entryDx=0;entryDy=0;fillColor=#f8cecc;strokeColor=#b85450;" edge="1" parent="1" target="807Y8X18UgtipFVeMdCm-95">
          <mxGeometry relative="1" as="geometry">
            <mxPoint x="639.9999999999998" y="459.9999999999998" as="sourcePoint" />
          </mxGeometry>
        </mxCell>
        <mxCell id="807Y8X18UgtipFVeMdCm-105" style="edgeStyle=orthogonalEdgeStyle;rounded=0;orthogonalLoop=1;jettySize=auto;html=1;exitX=0.5;exitY=1;exitDx=0;exitDy=0;" edge="1" parent="1" source="807Y8X18UgtipFVeMdCm-130">
          <mxGeometry relative="1" as="geometry">
            <mxPoint x="600" y="660" as="sourcePoint" />
            <mxPoint x="559.9999999999998" y="719.9999999999998" as="targetPoint" />
            <Array as="points">
              <mxPoint x="560" y="720" />
            </Array>
          </mxGeometry>
        </mxCell>
        <mxCell id="807Y8X18UgtipFVeMdCm-106" style="edgeStyle=orthogonalEdgeStyle;rounded=0;orthogonalLoop=1;jettySize=auto;html=1;exitX=0.5;exitY=1;exitDx=0;exitDy=0;entryX=0.5;entryY=0;entryDx=0;entryDy=0;" edge="1" parent="1" source="807Y8X18UgtipFVeMdCm-107" target="807Y8X18UgtipFVeMdCm-110">
          <mxGeometry relative="1" as="geometry" />
        </mxCell>
        <mxCell id="807Y8X18UgtipFVeMdCm-107" value="MULT&lt;br&gt;DIV" style="rounded=0;whiteSpace=wrap;html=1;" vertex="1" parent="1">
          <mxGeometry x="760" y="350" width="80" height="40" as="geometry" />
        </mxCell>
        <mxCell id="807Y8X18UgtipFVeMdCm-108" style="edgeStyle=orthogonalEdgeStyle;rounded=0;orthogonalLoop=1;jettySize=auto;html=1;exitX=1;exitY=0.5;exitDx=0;exitDy=0;entryX=0;entryY=0.5;entryDx=0;entryDy=0;fillColor=#f8cecc;strokeColor=#b85450;" edge="1" parent="1" source="807Y8X18UgtipFVeMdCm-110" target="807Y8X18UgtipFVeMdCm-98">
          <mxGeometry relative="1" as="geometry" />
        </mxCell>
        <mxCell id="807Y8X18UgtipFVeMdCm-109" style="edgeStyle=orthogonalEdgeStyle;rounded=0;orthogonalLoop=1;jettySize=auto;html=1;exitX=0.25;exitY=1;exitDx=0;exitDy=0;jumpStyle=arc;" edge="1" parent="1" source="807Y8X18UgtipFVeMdCm-110">
          <mxGeometry relative="1" as="geometry">
            <mxPoint x="780" y="719.9999999999998" as="targetPoint" />
          </mxGeometry>
        </mxCell>
        <mxCell id="807Y8X18UgtipFVeMdCm-110" value="ALU" style="rounded=0;whiteSpace=wrap;html=1;fillColor=#dae8fc;strokeColor=#6c8ebf;" vertex="1" parent="1">
          <mxGeometry x="760" y="440" width="80" height="40" as="geometry" />
        </mxCell>
        <mxCell id="807Y8X18UgtipFVeMdCm-111" style="edgeStyle=orthogonalEdgeStyle;rounded=0;orthogonalLoop=1;jettySize=auto;html=1;exitX=1;exitY=0.5;exitDx=0;exitDy=0;entryX=0;entryY=0.5;entryDx=0;entryDy=0;fillColor=#f8cecc;strokeColor=#b85450;" edge="1" parent="1" source="807Y8X18UgtipFVeMdCm-113" target="807Y8X18UgtipFVeMdCm-103">
          <mxGeometry relative="1" as="geometry" />
        </mxCell>
        <mxCell id="807Y8X18UgtipFVeMdCm-112" style="edgeStyle=orthogonalEdgeStyle;rounded=0;orthogonalLoop=1;jettySize=auto;html=1;exitX=0.5;exitY=1;exitDx=0;exitDy=0;jumpStyle=arc;" edge="1" parent="1" source="807Y8X18UgtipFVeMdCm-113">
          <mxGeometry relative="1" as="geometry">
            <mxPoint x="1000" y="719.9999999999998" as="targetPoint" />
          </mxGeometry>
        </mxCell>
        <mxCell id="807Y8X18UgtipFVeMdCm-113" value="MEM" style="rounded=0;whiteSpace=wrap;html=1;fillColor=#dae8fc;strokeColor=#6c8ebf;" vertex="1" parent="1">
          <mxGeometry x="960" y="440" width="80" height="40" as="geometry" />
        </mxCell>
        <mxCell id="807Y8X18UgtipFVeMdCm-114" style="edgeStyle=orthogonalEdgeStyle;rounded=0;orthogonalLoop=1;jettySize=auto;html=1;exitX=1;exitY=0.5;exitDx=0;exitDy=0;entryX=0;entryY=0.5;entryDx=0;entryDy=0;fillColor=#f8cecc;strokeColor=#b85450;" edge="1" parent="1" source="807Y8X18UgtipFVeMdCm-115" target="807Y8X18UgtipFVeMdCm-121">
          <mxGeometry relative="1" as="geometry" />
        </mxCell>
        <mxCell id="807Y8X18UgtipFVeMdCm-115" value="RegFIle" style="rounded=0;whiteSpace=wrap;html=1;fillColor=#dae8fc;strokeColor=#6c8ebf;" vertex="1" parent="1">
          <mxGeometry x="1160" y="350" width="80" height="40" as="geometry" />
        </mxCell>
        <mxCell id="807Y8X18UgtipFVeMdCm-116" style="edgeStyle=orthogonalEdgeStyle;rounded=0;orthogonalLoop=1;jettySize=auto;html=1;exitX=1;exitY=0.5;exitDx=0;exitDy=0;entryX=0;entryY=0.5;entryDx=0;entryDy=0;" edge="1" parent="1" source="807Y8X18UgtipFVeMdCm-117" target="807Y8X18UgtipFVeMdCm-123">
          <mxGeometry relative="1" as="geometry" />
        </mxCell>
        <mxCell id="807Y8X18UgtipFVeMdCm-117" value="CP0" style="rounded=0;whiteSpace=wrap;html=1;" vertex="1" parent="1">
          <mxGeometry x="1160" y="440" width="80" height="40" as="geometry" />
        </mxCell>
        <mxCell id="807Y8X18UgtipFVeMdCm-118" style="edgeStyle=orthogonalEdgeStyle;rounded=0;orthogonalLoop=1;jettySize=auto;html=1;exitX=1;exitY=0.5;exitDx=0;exitDy=0;entryX=0;entryY=0.5;entryDx=0;entryDy=0;" edge="1" parent="1" source="807Y8X18UgtipFVeMdCm-119" target="807Y8X18UgtipFVeMdCm-124">
          <mxGeometry relative="1" as="geometry" />
        </mxCell>
        <mxCell id="807Y8X18UgtipFVeMdCm-119" value="HILO" style="rounded=0;whiteSpace=wrap;html=1;" vertex="1" parent="1">
          <mxGeometry x="1160" y="530" width="80" height="40" as="geometry" />
        </mxCell>
        <mxCell id="807Y8X18UgtipFVeMdCm-120" style="edgeStyle=orthogonalEdgeStyle;rounded=0;orthogonalLoop=1;jettySize=auto;html=1;exitX=0.25;exitY=0;exitDx=0;exitDy=0;entryX=0.25;entryY=0;entryDx=0;entryDy=0;" edge="1" parent="1" target="807Y8X18UgtipFVeMdCm-121">
          <mxGeometry relative="1" as="geometry">
            <mxPoint x="1325" y="220" as="sourcePoint" />
          </mxGeometry>
        </mxCell>
        <mxCell id="807Y8X18UgtipFVeMdCm-121" value="RegRead&lt;br&gt;Proxy" style="rounded=0;whiteSpace=wrap;html=1;fillColor=#dae8fc;strokeColor=#6c8ebf;" vertex="1" parent="1">
          <mxGeometry x="1310" y="330" width="60" height="80" as="geometry" />
        </mxCell>
        <mxCell id="807Y8X18UgtipFVeMdCm-122" style="edgeStyle=orthogonalEdgeStyle;rounded=0;orthogonalLoop=1;jettySize=auto;html=1;exitX=0.25;exitY=0;exitDx=0;exitDy=0;entryX=0.25;entryY=0;entryDx=0;entryDy=0;" edge="1" parent="1" target="807Y8X18UgtipFVeMdCm-123">
          <mxGeometry relative="1" as="geometry">
            <mxPoint x="1385" y="220" as="sourcePoint" />
          </mxGeometry>
        </mxCell>
        <mxCell id="807Y8X18UgtipFVeMdCm-123" value="CP0Read&lt;br&gt;Proxy" style="rounded=0;whiteSpace=wrap;html=1;" vertex="1" parent="1">
          <mxGeometry x="1370" y="420" width="60" height="80" as="geometry" />
        </mxCell>
        <mxCell id="807Y8X18UgtipFVeMdCm-124" value="HILORead&lt;br&gt;Proxy" style="rounded=0;whiteSpace=wrap;html=1;" vertex="1" parent="1">
          <mxGeometry x="1430" y="510" width="60" height="80" as="geometry" />
        </mxCell>
        <mxCell id="807Y8X18UgtipFVeMdCm-125" style="edgeStyle=orthogonalEdgeStyle;rounded=0;orthogonalLoop=1;jettySize=auto;html=1;exitX=0.5;exitY=0;exitDx=0;exitDy=0;entryX=0.5;entryY=0;entryDx=0;entryDy=0;jumpStyle=arc;" edge="1" parent="1" target="807Y8X18UgtipFVeMdCm-121">
          <mxGeometry relative="1" as="geometry">
            <mxPoint x="1340" y="210" as="sourcePoint" />
          </mxGeometry>
        </mxCell>
        <mxCell id="807Y8X18UgtipFVeMdCm-126" style="edgeStyle=orthogonalEdgeStyle;rounded=0;orthogonalLoop=1;jettySize=auto;html=1;exitX=0.5;exitY=0;exitDx=0;exitDy=0;entryX=0.5;entryY=0;entryDx=0;entryDy=0;jumpStyle=arc;" edge="1" parent="1" target="807Y8X18UgtipFVeMdCm-123">
          <mxGeometry relative="1" as="geometry">
            <mxPoint x="1400" y="210" as="sourcePoint" />
          </mxGeometry>
        </mxCell>
        <mxCell id="807Y8X18UgtipFVeMdCm-127" style="edgeStyle=orthogonalEdgeStyle;rounded=0;orthogonalLoop=1;jettySize=auto;html=1;exitX=0.75;exitY=0;exitDx=0;exitDy=0;jumpStyle=arc;entryX=0.5;entryY=0;entryDx=0;entryDy=0;fillColor=#f8cecc;strokeColor=#b85450;" edge="1" parent="1" source="807Y8X18UgtipFVeMdCm-121" target="807Y8X18UgtipFVeMdCm-130">
          <mxGeometry relative="1" as="geometry">
            <Array as="points">
              <mxPoint x="1355" y="200" />
              <mxPoint x="560" y="200" />
            </Array>
            <mxPoint x="600" y="200" as="targetPoint" />
          </mxGeometry>
        </mxCell>
        <mxCell id="807Y8X18UgtipFVeMdCm-128" style="edgeStyle=orthogonalEdgeStyle;rounded=0;orthogonalLoop=1;jettySize=auto;html=1;entryX=0.75;entryY=0;entryDx=0;entryDy=0;jumpStyle=arc;" edge="1" parent="1" target="807Y8X18UgtipFVeMdCm-95">
          <mxGeometry relative="1" as="geometry">
            <Array as="points">
              <mxPoint x="710" y="190" />
            </Array>
            <mxPoint x="1000" y="190" as="sourcePoint" />
          </mxGeometry>
        </mxCell>
        <mxCell id="807Y8X18UgtipFVeMdCm-129" style="edgeStyle=orthogonalEdgeStyle;rounded=0;orthogonalLoop=1;jettySize=auto;html=1;entryX=0.5;entryY=0;entryDx=0;entryDy=0;jumpStyle=arc;" edge="1" parent="1" target="807Y8X18UgtipFVeMdCm-113">
          <mxGeometry relative="1" as="geometry">
            <mxPoint x="1000" y="190" as="sourcePoint" />
          </mxGeometry>
        </mxCell>
        <mxCell id="807Y8X18UgtipFVeMdCm-130" value="&lt;blockquote style=&quot;margin: 0 0 0 40px ; border: none ; padding: 0px&quot;&gt;&lt;/blockquote&gt;" style="rounded=0;whiteSpace=wrap;html=1;align=left;" vertex="1" parent="1">
          <mxGeometry x="480" y="270" width="160" height="360" as="geometry" />
        </mxCell>
        <mxCell id="807Y8X18UgtipFVeMdCm-131" value="OperandGen" style="rounded=0;whiteSpace=wrap;html=1;fillColor=#dae8fc;strokeColor=#6c8ebf;" vertex="1" parent="1">
          <mxGeometry x="520" y="280" width="80" height="40" as="geometry" />
        </mxCell>
        <mxCell id="807Y8X18UgtipFVeMdCm-132" value="CP0Gen" style="rounded=0;whiteSpace=wrap;html=1;" vertex="1" parent="1">
          <mxGeometry x="520" y="480" width="80" height="40" as="geometry" />
        </mxCell>
        <mxCell id="807Y8X18UgtipFVeMdCm-133" value="ExceptionGen" style="rounded=0;whiteSpace=wrap;html=1;" vertex="1" parent="1">
          <mxGeometry x="520" y="530" width="80" height="40" as="geometry" />
        </mxCell>
        <mxCell id="807Y8X18UgtipFVeMdCm-134" value="FunctGen" style="rounded=0;whiteSpace=wrap;html=1;fillColor=#dae8fc;strokeColor=#6c8ebf;" vertex="1" parent="1">
          <mxGeometry x="520" y="380" width="80" height="40" as="geometry" />
        </mxCell>
        <mxCell id="807Y8X18UgtipFVeMdCm-135" value="MemGen" style="rounded=0;whiteSpace=wrap;html=1;" vertex="1" parent="1">
          <mxGeometry x="520" y="430" width="80" height="40" as="geometry" />
        </mxCell>
        <mxCell id="807Y8X18UgtipFVeMdCm-136" value="BranchGen" style="rounded=0;whiteSpace=wrap;html=1;" vertex="1" parent="1">
          <mxGeometry x="520" y="580" width="80" height="40" as="geometry" />
        </mxCell>
        <mxCell id="807Y8X18UgtipFVeMdCm-137" value="RegGen" style="rounded=0;whiteSpace=wrap;html=1;fillColor=#dae8fc;strokeColor=#6c8ebf;" vertex="1" parent="1">
          <mxGeometry x="520" y="330" width="80" height="40" as="geometry" />
        </mxCell>
        <mxCell id="807Y8X18UgtipFVeMdCm-138" style="edgeStyle=orthogonalEdgeStyle;rounded=0;orthogonalLoop=1;jettySize=auto;html=1;exitX=0.5;exitY=1;exitDx=0;exitDy=0;" edge="1" parent="1" source="807Y8X18UgtipFVeMdCm-130" target="807Y8X18UgtipFVeMdCm-130">
          <mxGeometry x="480" y="270" as="geometry" />
        </mxCell>
        <mxCell id="807Y8X18UgtipFVeMdCm-139" value="" style="endArrow=none;html=1;entryX=0.75;entryY=0;entryDx=0;entryDy=0;rounded=0;jumpStyle=arc;" edge="1" parent="1" target="807Y8X18UgtipFVeMdCm-123">
          <mxGeometry width="50" height="50" relative="1" as="geometry">
            <mxPoint x="1000" y="190" as="sourcePoint" />
            <mxPoint x="1220" y="410" as="targetPoint" />
            <Array as="points">
              <mxPoint x="1415" y="190" />
            </Array>
          </mxGeometry>
        </mxCell>
        <mxCell id="807Y8X18UgtipFVeMdCm-140" style="edgeStyle=orthogonalEdgeStyle;rounded=0;jumpStyle=arc;orthogonalLoop=1;jettySize=auto;html=1;exitX=0.5;exitY=0;exitDx=0;exitDy=0;endFill=1;entryX=0.5;entryY=0;entryDx=0;entryDy=0;" edge="1" parent="1" target="807Y8X18UgtipFVeMdCm-117">
          <mxGeometry relative="1" as="geometry">
            <mxPoint x="517.584533691406" y="270" as="sourcePoint" />
            <Array as="points">
              <mxPoint x="518" y="170" />
              <mxPoint x="1290" y="170" />
              <mxPoint x="1290" y="420" />
              <mxPoint x="1200" y="420" />
            </Array>
          </mxGeometry>
        </mxCell>
        <mxCell id="807Y8X18UgtipFVeMdCm-141" style="edgeStyle=orthogonalEdgeStyle;rounded=0;orthogonalLoop=1;jettySize=auto;html=1;exitX=0.75;exitY=0;exitDx=0;exitDy=0;entryX=1;entryY=0.25;entryDx=0;entryDy=0;jumpStyle=arc;" edge="1" parent="1" source="807Y8X18UgtipFVeMdCm-113" target="807Y8X18UgtipFVeMdCm-117">
          <mxGeometry relative="1" as="geometry">
            <Array as="points">
              <mxPoint x="1020" y="250" />
              <mxPoint x="1270" y="250" />
              <mxPoint x="1270" y="450" />
            </Array>
          </mxGeometry>
        </mxCell>
        <mxCell id="807Y8X18UgtipFVeMdCm-142" style="edgeStyle=orthogonalEdgeStyle;rounded=0;jumpStyle=arc;orthogonalLoop=1;jettySize=auto;html=1;entryX=0.5;entryY=0;entryDx=0;entryDy=0;endFill=1;fillColor=#f8cecc;strokeColor=#b85450;" edge="1" parent="1" target="807Y8X18UgtipFVeMdCm-115">
          <mxGeometry relative="1" as="geometry">
            <mxPoint x="529.9999999999998" y="270" as="sourcePoint" />
            <Array as="points">
              <mxPoint x="530" y="270" />
              <mxPoint x="530" y="180" />
              <mxPoint x="1200" y="180" />
            </Array>
          </mxGeometry>
        </mxCell>
      </root>
    </mxGraphModel>
  </diagram>
</mxfile>
